<svg width="2041" height="1814" xmlns="http://www.w3.org/2000/svg" xmlns:xlink="http://www.w3.org/1999/xlink" overflow="hidden"><defs><clipPath id="clip0"><rect x="0" y="0" width="2041" height="1814"/></clipPath><clipPath id="clip1"><rect x="218" y="1386" width="75" height="70"/></clipPath><clipPath id="clip2"><rect x="218" y="1386" width="75" height="70"/></clipPath><clipPath id="clip3"><rect x="218" y="1386" width="75" height="70"/></clipPath><clipPath id="clip4"><rect x="227" y="1395" width="59" height="54"/></clipPath><clipPath id="clip5"><rect x="218" y="1313" width="75" height="70"/></clipPath><clipPath id="clip6"><rect x="218" y="1313" width="75" height="70"/></clipPath><clipPath id="clip7"><rect x="218" y="1313" width="75" height="70"/></clipPath><clipPath id="clip8"><rect x="227" y="1322" width="59" height="54"/></clipPath><clipPath id="clip9"><rect x="218" y="1240" width="75" height="70"/></clipPath><clipPath id="clip10"><rect x="218" y="1240" width="75" height="70"/></clipPath><clipPath id="clip11"><rect x="218" y="1240" width="75" height="70"/></clipPath><clipPath id="clip12"><rect x="227" y="1249" width="59" height="54"/></clipPath><clipPath id="clip13"><rect x="218" y="1168" width="75" height="69"/></clipPath><clipPath id="clip14"><rect x="218" y="1168" width="75" height="69"/></clipPath><clipPath id="clip15"><rect x="218" y="1168" width="75" height="69"/></clipPath><clipPath id="clip16"><rect x="227" y="1177" width="59" height="53"/></clipPath><clipPath id="clip17"><rect x="218" y="1093" width="75" height="69"/></clipPath><clipPath id="clip18"><rect x="218" y="1093" width="75" height="69"/></clipPath><clipPath id="clip19"><rect x="218" y="1093" width="75" height="69"/></clipPath><clipPath id="clip20"><rect x="227" y="1102" width="59" height="53"/></clipPath><clipPath id="clip21"><rect x="218" y="1458" width="75" height="70"/></clipPath><clipPath id="clip22"><rect x="218" y="1458" width="75" height="70"/></clipPath><clipPath id="clip23"><rect x="218" y="1458" width="75" height="70"/></clipPath><clipPath id="clip24"><rect x="227" y="1467" width="59" height="54"/></clipPath><clipPath id="clip25"><rect x="581" y="1017" width="75" height="70"/></clipPath><clipPath id="clip26"><rect x="581" y="1017" width="75" height="70"/></clipPath><clipPath id="clip27"><rect x="581" y="1017" width="75" height="70"/></clipPath><clipPath id="clip28"><rect x="590" y="1026" width="59" height="54"/></clipPath><clipPath id="clip29"><rect x="581" y="1080" width="75" height="70"/></clipPath><clipPath id="clip30"><rect x="581" y="1080" width="75" height="70"/></clipPath><clipPath id="clip31"><rect x="581" y="1080" width="75" height="70"/></clipPath><clipPath id="clip32"><rect x="590" y="1089" width="59" height="54"/></clipPath><clipPath id="clip33"><rect x="581" y="1143" width="75" height="70"/></clipPath><clipPath id="clip34"><rect x="581" y="1143" width="75" height="70"/></clipPath><clipPath id="clip35"><rect x="581" y="1143" width="75" height="70"/></clipPath><clipPath id="clip36"><rect x="590" y="1152" width="59" height="54"/></clipPath><clipPath id="clip37"><rect x="581" y="1206" width="75" height="70"/></clipPath><clipPath id="clip38"><rect x="581" y="1206" width="75" height="70"/></clipPath><clipPath id="clip39"><rect x="581" y="1206" width="75" height="70"/></clipPath><clipPath id="clip40"><rect x="590" y="1215" width="59" height="54"/></clipPath><clipPath id="clip41"><rect x="581" y="1270" width="75" height="69"/></clipPath><clipPath id="clip42"><rect x="581" y="1270" width="75" height="69"/></clipPath><clipPath id="clip43"><rect x="581" y="1270" width="75" height="69"/></clipPath><clipPath id="clip44"><rect x="590" y="1279" width="59" height="53"/></clipPath><clipPath id="clip45"><rect x="581" y="1333" width="75" height="70"/></clipPath><clipPath id="clip46"><rect x="581" y="1333" width="75" height="70"/></clipPath><clipPath id="clip47"><rect x="581" y="1333" width="75" height="70"/></clipPath><clipPath id="clip48"><rect x="590" y="1342" width="59" height="54"/></clipPath><clipPath id="clip49"><rect x="581" y="1459" width="75" height="70"/></clipPath><clipPath id="clip50"><rect x="581" y="1459" width="75" height="70"/></clipPath><clipPath id="clip51"><rect x="581" y="1459" width="75" height="70"/></clipPath><clipPath id="clip52"><rect x="590" y="1468" width="59" height="54"/></clipPath><clipPath id="clip53"><rect x="581" y="1396" width="75" height="70"/></clipPath><clipPath id="clip54"><rect x="581" y="1396" width="75" height="70"/></clipPath><clipPath id="clip55"><rect x="581" y="1396" width="75" height="70"/></clipPath><clipPath id="clip56"><rect x="590" y="1405" width="59" height="54"/></clipPath><clipPath id="clip57"><rect x="581" y="1522" width="75" height="70"/></clipPath><clipPath id="clip58"><rect x="581" y="1522" width="75" height="70"/></clipPath><clipPath id="clip59"><rect x="581" y="1522" width="75" height="70"/></clipPath><clipPath id="clip60"><rect x="590" y="1531" width="59" height="54"/></clipPath><clipPath id="clip61"><rect x="956" y="1061" width="75" height="70"/></clipPath><clipPath id="clip62"><rect x="956" y="1061" width="75" height="70"/></clipPath><clipPath id="clip63"><rect x="956" y="1061" width="75" height="70"/></clipPath><clipPath id="clip64"><rect x="965" y="1070" width="59" height="54"/></clipPath><clipPath id="clip65"><rect x="956" y="1255" width="75" height="70"/></clipPath><clipPath id="clip66"><rect x="956" y="1255" width="75" height="70"/></clipPath><clipPath id="clip67"><rect x="956" y="1255" width="75" height="70"/></clipPath><clipPath id="clip68"><rect x="965" y="1264" width="59" height="54"/></clipPath><clipPath id="clip69"><rect x="955" y="1449" width="75" height="69"/></clipPath><clipPath id="clip70"><rect x="955" y="1449" width="75" height="69"/></clipPath><clipPath id="clip71"><rect x="955" y="1449" width="75" height="69"/></clipPath><clipPath id="clip72"><rect x="964" y="1458" width="59" height="53"/></clipPath><linearGradient x1="1259.5" y1="570.448" x2="1259.5" y2="787.428" gradientUnits="userSpaceOnUse" spreadMethod="reflect" id="fill73"><stop offset="0" stop-color="#D2D2D2"/><stop offset="0.5" stop-color="#C8C8C8"/><stop offset="1" stop-color="#C0C0C0"/></linearGradient></defs><g clip-path="url(#clip0)"><rect x="0" y="0" width="2041" height="1813.83" fill="#FFFFFF"/><path d="M16 192.152C16 109.223 83.2333 41.9961 166.17 41.9961L1874.83 41.9961C1957.77 41.9961 2025 109.223 2025 192.152L2025 792.757C2025 875.686 1957.77 942.913 1874.83 942.913L166.17 942.913C83.2333 942.913 16 875.686 16 792.757Z" fill="#DEEBF7" fill-rule="evenodd"/><path d="M16 1101.24C16 1027.05 76.1443 966.911 150.336 966.911L1228.66 966.911C1302.86 966.911 1363 1027.05 1363 1101.24L1363 1638.51C1363 1712.7 1302.86 1772.84 1228.66 1772.84L150.336 1772.84C76.1443 1772.84 16 1712.7 16 1638.51Z" fill="#FDF2EA" fill-rule="evenodd"/><path d="M65 1022.91 65.465 1601.82" stroke="#000000" stroke-width="6" stroke-miterlimit="8" stroke-dasharray="24 18 6 18" fill="none" fill-rule="evenodd"/><path d="M56.5001 1169.39C56.5001 1163.32 60.0818 1158.39 64.5001 1158.39 68.9183 1158.39 72.5001 1163.32 72.5001 1169.39 72.5001 1175.47 68.9183 1180.39 64.5001 1180.39 60.0818 1180.39 56.5001 1175.47 56.5001 1169.39Z" stroke="#000000" stroke-width="1.33333" stroke-miterlimit="8" fill-rule="evenodd"/><path d="M56.5001 1409.37C56.5001 1403.3 60.0818 1398.37 64.5001 1398.37 68.9183 1398.37 72.5001 1403.3 72.5001 1409.37 72.5001 1415.45 68.9183 1420.37 64.5001 1420.37 60.0818 1420.37 56.5001 1415.45 56.5001 1409.37Z" stroke="#000000" stroke-width="1.33333" stroke-miterlimit="8" fill-rule="evenodd"/><path d="M423.5 1095.4C423.5 1089.32 427.306 1084.4 432 1084.4 436.694 1084.4 440.5 1089.32 440.5 1095.4 440.5 1101.47 436.694 1106.4 432 1106.4 427.306 1106.4 423.5 1101.47 423.5 1095.4Z" stroke="#000000" stroke-width="1.33333" stroke-miterlimit="8" fill-rule="evenodd"/><path d="M423.5 1289.38C423.5 1283.31 427.306 1278.38 432 1278.38 436.694 1278.38 440.5 1283.31 440.5 1289.38 440.5 1295.46 436.694 1300.38 432 1300.38 427.306 1300.38 423.5 1295.46 423.5 1289.38Z" stroke="#000000" stroke-width="1.33333" stroke-miterlimit="8" fill-rule="evenodd"/><path d="M423.5 1483.86C423.5 1478.07 427.306 1473.36 432 1473.36 436.694 1473.36 440.5 1478.07 440.5 1483.86 440.5 1489.66 436.694 1494.36 432 1494.36 427.306 1494.36 423.5 1489.66 423.5 1483.86Z" stroke="#000000" stroke-width="1.33333" stroke-miterlimit="8" fill-rule="evenodd"/><g clip-path="url(#clip1)"><g clip-path="url(#clip2)"><g clip-path="url(#clip3)"><path d="M0 56.25 75 56.25 75 0 0 0Z" fill="#FFFFFF" transform="matrix(1 0 0 1.22655 218 1386.87)"/><path d="M9.375 50.0625 67.5 50.0625 67.5 6.75 9.375 6.75Z" fill="#FFFFFF" transform="matrix(1 0 0 1.22655 218 1386.87)"/><g clip-path="url(#clip4)"><path d="M12.017 35.4632 12.5508 34.4078 13.0845 33.1983 13.6182 31.8555 14.1521 30.4003 14.6858 28.8535 15.2195 27.2363 15.7533 25.5694 16.287 23.8737 16.8207 22.1703 17.3546 20.4799 17.8883 18.8236 18.422 17.2221 18.9557 15.6965 19.4895 14.2677 20.0233 12.9565 20.557 11.7838 21.0908 10.7707 21.6245 9.9379 22.1582 9.30645 22.6919 8.89716 23.2258 8.71875 23.7595 8.75288 24.2932 8.97751 24.827 9.37064 25.3607 9.91023 25.8944 10.5743 26.4283 11.3408 26.962 12.1877 27.4957 13.0931 28.0294 14.0348 28.5632 14.9909 29.0969 15.9393 29.6307 16.8581 30.1645 17.7251 30.6982 18.5185 31.2319 19.2163 31.7656 19.7961 32.2995 20.2363 32.8332 20.5147 33.3669 20.6098 33.9007 20.5181 34.4344 20.2598 34.9681 19.8562 35.502 19.3293 36.0357 18.7005 36.5694 17.9915 37.1031 17.224 37.6368 16.4195 38.1706 15.5999 38.7044 14.7865 39.2381 14.001 39.7719 13.2652 40.3056 12.6006 40.8393 12.0289 41.373 11.5717 41.9069 11.2506 42.4406 11.0873 42.9743 11.1033 43.5081 11.3204 44.0418 11.7587 44.5755 12.4167 45.1094 13.276 45.6431 14.3181 46.1768 15.5242 46.7105 16.8757 47.2443 18.3538 47.7781 19.9397 48.3118 21.615 48.8456 23.3609 49.3793 25.1586 49.913 26.9896 50.4467 28.835 50.9806 30.6762 51.5143 32.4945 52.048 34.2714 52.5818 35.9879 53.1155 37.6254 53.6492 39.1654 54.1831 40.5889 54.7168 41.8794 55.2505 43.0346 55.7842 44.0589 56.318 44.9564 56.8517 45.7315 57.3855 46.3887 57.9193 46.932 58.453 47.366 58.9867 47.6948 59.5204 47.9228 60.0543 48.0544 60.588 48.0937 61.1217 48.0453 61.6555 47.9133 62.1892 47.702 62.7229 47.4159 63.2568 47.0591 63.7905 46.6361 64.3242 46.151 64.8579 45.6085" stroke="#1F77B4" stroke-width="1.30208" stroke-linecap="square" stroke-linejoin="round" fill="none" transform="matrix(1 0 0 1.22655 218 1386.87)"/></g><path d="M9.375 50.0625 9.375 6.75" stroke="#000000" stroke-width="1.30208" stroke-linecap="square" fill="none" transform="matrix(1 0 0 1.22655 218 1386.87)"/><path d="M67.5 50.0625 67.5 6.75" stroke="#000000" stroke-width="1.30208" stroke-linecap="square" fill="none" transform="matrix(1 0 0 1.22655 218 1386.87)"/><path d="M9.375 50.0625 67.5 50.0625" stroke="#000000" stroke-width="1.30208" stroke-linecap="square" fill="none" transform="matrix(1 0 0 1.22655 218 1386.87)"/><path d="M9.375 6.75 67.5 6.75" stroke="#000000" stroke-width="1.30208" stroke-linecap="square" fill="none" transform="matrix(1 0 0 1.22655 218 1386.87)"/></g></g></g><g clip-path="url(#clip5)"><g clip-path="url(#clip6)"><g clip-path="url(#clip7)"><path d="M0 56.25 75 56.25 75 0 0 0Z" fill="#FFFFFF" transform="matrix(1 0 0 1.22655 218 1313.88)"/><path d="M9.375 50.0625 67.5 50.0625 67.5 6.75 9.375 6.75Z" fill="#FFFFFF" transform="matrix(1 0 0 1.22655 218 1313.88)"/><g clip-path="url(#clip8)"><path d="M12.017 31.1908 12.5508 31.5152 13.0845 31.7898 13.6182 32.0163 14.1521 32.1967 14.6858 32.3331 15.2195 32.4273 15.7533 32.4815 16.287 32.4974 16.8207 32.4771 17.3546 32.4227 17.8883 32.3359 18.422 32.219 18.9557 32.0737 19.4895 31.902 20.0233 31.706 20.557 31.4876 21.0908 31.2488 21.6245 30.9915 22.1582 30.7178 22.6919 30.4297 23.2258 30.1284 23.7595 29.8147 24.2932 29.4888 24.827 29.1509 25.3607 28.8016 25.8944 28.441 26.4283 28.0695 26.962 27.6875 27.4957 27.2952 28.0294 26.8931 28.5632 26.4813 29.0969 26.0603 29.6307 25.6303 30.1645 25.1918 30.6982 24.7451 31.2319 24.2902 31.7656 23.8279 32.2995 23.3583 32.8332 22.8816 33.3669 22.3984 33.9007 21.909 34.4344 21.4137 34.9681 20.913 35.502 20.4074 36.0357 19.8973 36.5694 19.3832 37.1031 18.8654 37.6368 18.3445 38.1706 17.8208 38.7044 17.2949 39.2381 16.7672 39.7719 16.238 40.3056 15.7078 40.8393 15.1772 41.373 14.6465 41.9069 14.1161 42.4406 13.5866 42.9743 13.0583 43.5081 12.5318 44.0418 12.0077 44.5755 11.4914 45.1094 10.9923 45.6431 10.5194 46.1768 10.082 46.7105 9.68932 47.2443 9.35053 47.7781 9.07487 48.3118 8.87154 48.8456 8.74976 49.3793 8.71875 49.913 8.78772 50.4467 8.96589 50.9806 9.26245 51.5143 9.68664 52.048 10.2477 52.5818 10.9548 53.1155 11.8171 53.6492 12.8439 54.1831 14.0444 54.7168 15.4251 55.2505 16.9729 55.7842 18.6654 56.318 20.4805 56.8517 22.3961 57.3855 24.3898 57.9193 26.4397 58.453 28.5234 58.9867 30.6189 59.5204 32.7038 60.0543 34.756 60.588 36.7534 61.1217 38.6737 61.6555 40.4947 62.1892 42.1943 62.7229 43.7501 63.2568 45.1402 63.7905 46.3423 64.3242 47.3342 64.8579 48.0937" stroke="#1F77B4" stroke-width="1.30208" stroke-linecap="square" stroke-linejoin="round" fill="none" transform="matrix(1 0 0 1.22655 218 1313.88)"/></g><path d="M9.375 50.0625 9.375 6.75" stroke="#000000" stroke-width="1.30208" stroke-linecap="square" fill="none" transform="matrix(1 0 0 1.22655 218 1313.88)"/><path d="M67.5 50.0625 67.5 6.75" stroke="#000000" stroke-width="1.30208" stroke-linecap="square" fill="none" transform="matrix(1 0 0 1.22655 218 1313.88)"/><path d="M9.375 50.0625 67.5 50.0625" stroke="#000000" stroke-width="1.30208" stroke-linecap="square" fill="none" transform="matrix(1 0 0 1.22655 218 1313.88)"/><path d="M9.375 6.75 67.5 6.75" stroke="#000000" stroke-width="1.30208" stroke-linecap="square" fill="none" transform="matrix(1 0 0 1.22655 218 1313.88)"/></g></g></g><g clip-path="url(#clip9)"><g clip-path="url(#clip10)"><g clip-path="url(#clip11)"><path d="M0 56.25 75 56.25 75 0 0 0Z" fill="#FFFFFF" transform="matrix(1 0 0 1.22655 218 1240.89)"/><path d="M9.375 50.0625 67.5 50.0625 67.5 6.75 9.375 6.75Z" fill="#FFFFFF" transform="matrix(1 0 0 1.22655 218 1240.89)"/><g clip-path="url(#clip12)"><path d="M12.017 27.4418 12.5508 27.6134 13.0845 27.7822 13.6182 27.9491 14.1521 28.1151 14.6858 28.2814 15.2195 28.4486 15.7533 28.618 16.287 28.7902 16.8207 28.9667 17.3546 29.1479 17.8883 29.3352 18.422 29.5293 18.9557 29.7312 19.4895 29.9421 20.0233 30.1628 20.557 30.3941 21.0908 30.6374 21.6245 30.8932 22.1582 31.1629 22.6919 31.4471 23.2258 31.7444 23.7595 32.0469 24.2932 32.3464 24.827 32.6344 25.3607 32.9023 25.8944 33.1421 26.4283 33.3451 26.962 33.5029 27.4957 33.607 28.0294 33.6492 28.5632 33.621 29.0969 33.5138 29.6307 33.3194 30.1645 33.0293 30.6982 32.6352 31.2319 32.1284 31.7656 31.5008 32.2995 30.7437 32.8332 29.849 33.3669 28.8083 33.9007 27.627 34.4344 26.3275 34.9681 24.9333 35.502 23.4684 36.0357 21.9561 36.5694 20.4202 37.1031 18.8841 37.6368 17.3716 38.1706 15.9064 38.7044 14.512 39.2381 13.2121 39.7719 12.0302 40.3056 10.99 40.8393 10.1151 41.373 9.4292 41.9069 8.95587 42.4406 8.71875 42.9743 8.74146 43.5081 9.04762 44.0418 9.65897 44.5755 10.5689 45.1094 11.7489 45.6431 13.1699 46.1768 14.803 46.7105 16.619 47.2443 18.5891 47.7781 20.684 48.3118 22.8749 48.8456 25.1326 49.3793 27.4281 49.913 29.7325 50.4467 32.0167 50.9806 34.2516 51.5143 36.4082 52.048 38.4576 52.5818 40.3704 53.1155 42.1181 53.6492 43.6714 54.1831 45.001 54.7168 46.0822 55.2505 46.9171 55.7842 47.5206 56.318 47.9078 56.8517 48.0937 57.3855 48.0934 57.9193 47.9216 58.453 47.5935 58.9867 47.124 59.5204 46.528 60.0543 45.8207 60.588 45.0171 61.1217 44.1318 61.6555 43.1802 62.1892 42.1771 62.7229 41.1375 63.2568 40.0764 63.7905 39.0089 64.3242 37.9497 64.8579 36.9142" stroke="#1F77B4" stroke-width="1.30208" stroke-linecap="square" stroke-linejoin="round" fill="none" transform="matrix(1 0 0 1.22655 218 1240.89)"/></g><path d="M9.375 50.0625 9.375 6.75" stroke="#000000" stroke-width="1.30208" stroke-linecap="square" fill="none" transform="matrix(1 0 0 1.22655 218 1240.89)"/><path d="M67.5 50.0625 67.5 6.75" stroke="#000000" stroke-width="1.30208" stroke-linecap="square" fill="none" transform="matrix(1 0 0 1.22655 218 1240.89)"/><path d="M9.375 50.0625 67.5 50.0625" stroke="#000000" stroke-width="1.30208" stroke-linecap="square" fill="none" transform="matrix(1 0 0 1.22655 218 1240.89)"/><path d="M9.375 6.75 67.5 6.75" stroke="#000000" stroke-width="1.30208" stroke-linecap="square" fill="none" transform="matrix(1 0 0 1.22655 218 1240.89)"/></g></g></g><g clip-path="url(#clip13)"><g clip-path="url(#clip14)"><g clip-path="url(#clip15)"><path d="M0 56.25 75 56.25 75 0 0 0Z" fill="#FFFFFF" transform="matrix(1 0 0 1.20878 218 1168.89)"/><path d="M9.375 50.0625 67.5 50.0625 67.5 6.75 9.375 6.75Z" fill="#FFFFFF" transform="matrix(1 0 0 1.20878 218 1168.89)"/><g clip-path="url(#clip16)"><path d="M12.017 19.347 12.5508 18.3642 13.0845 17.3493 13.6182 16.3189 14.1521 15.2896 14.6858 14.2781 15.2195 13.301 15.7533 12.3749 16.287 11.5165 16.8207 10.7425 17.3546 10.0693 17.8883 9.51375 18.422 9.09237 18.9557 8.82182 19.4895 8.71875 20.0233 8.79977 20.557 9.08151 21.0908 9.58062 21.6245 10.3137 22.1582 11.2975 22.6919 12.5484 23.2258 14.0684 23.7595 15.8267 24.2932 17.7882 24.827 19.9174 25.3607 22.1796 25.8944 24.5391 26.4283 26.9608 26.962 29.4098 27.4957 31.8505 28.0294 34.2479 28.5632 36.5668 29.0969 38.7719 29.6307 40.828 30.1645 42.7 30.6982 44.3526 31.2319 45.7506 31.7656 46.859 32.2995 47.6422 32.8332 48.0652 33.3669 48.0937 33.9007 47.7246 34.4344 46.9958 34.9681 45.9479 35.502 44.6213 36.0357 43.0569 36.5694 41.2949 37.1031 39.3762 37.6368 37.3413 38.1706 35.2306 38.7044 33.0849 39.2381 30.9447 39.7719 28.8505 40.3056 26.8431 40.8393 24.9628 41.373 23.2504 41.9069 21.7464 42.4406 20.4913 42.9743 19.5257 43.5081 18.8904 44.0418 18.6229 44.5755 18.7207 45.1094 19.1496 45.6431 19.8749 46.1768 20.8615 46.7105 22.0746 47.2443 23.4794 47.7781 25.041 48.3118 26.7245 48.8456 28.4949 49.3793 30.3176 49.913 32.1576 50.4467 33.9799 50.9806 35.7497 51.5143 37.4323 52.048 38.9927 52.5818 40.396 53.1155 41.6073 53.6492 42.5918 54.1831 43.3146 54.7168 43.7457 55.2505 43.8917 55.7842 43.775 56.318 43.4186 56.8517 42.8452 57.3855 42.0775 57.9193 41.1384 58.453 40.0508 58.9867 38.8371 59.5204 37.5204 60.0543 36.1234 60.588 34.6688 61.1217 33.1794 61.6555 31.6781 62.1892 30.1875 62.7229 28.7305 63.2568 27.3298 63.7905 26.0082 64.3242 24.7885 64.8579 23.6936" stroke="#1F77B4" stroke-width="1.30208" stroke-linecap="square" stroke-linejoin="round" fill="none" transform="matrix(1 0 0 1.20878 218 1168.89)"/></g><path d="M9.375 50.0625 9.375 6.75" stroke="#000000" stroke-width="1.30208" stroke-linecap="square" fill="none" transform="matrix(1 0 0 1.20878 218 1168.89)"/><path d="M67.5 50.0625 67.5 6.75" stroke="#000000" stroke-width="1.30208" stroke-linecap="square" fill="none" transform="matrix(1 0 0 1.20878 218 1168.89)"/><path d="M9.375 50.0625 67.5 50.0625" stroke="#000000" stroke-width="1.30208" stroke-linecap="square" fill="none" transform="matrix(1 0 0 1.20878 218 1168.89)"/><path d="M9.375 6.75 67.5 6.75" stroke="#000000" stroke-width="1.30208" stroke-linecap="square" fill="none" transform="matrix(1 0 0 1.20878 218 1168.89)"/></g></g></g><g clip-path="url(#clip17)"><g clip-path="url(#clip18)"><g clip-path="url(#clip19)"><path d="M0 56.25 75 56.25 75 0 0 0Z" fill="#FFFFFF" transform="matrix(1 0 0 1.20878 218 1093.9)"/><path d="M9.375 50.0625 67.5 50.0625 67.5 6.75 9.375 6.75Z" fill="#FFFFFF" transform="matrix(1 0 0 1.20878 218 1093.9)"/><g clip-path="url(#clip20)"><path d="M12.017 23.0855 12.5508 22.59 13.0845 22.077 13.6182 21.5582 14.1521 21.0449 14.6858 20.5484 15.2195 20.0802 15.7533 19.6516 16.287 19.2738 16.8207 18.9586 17.3546 18.7171 17.8883 18.5605 18.422 18.5005 18.9557 18.5484 19.4895 18.7155 20.0233 19.0131 20.557 19.4527 21.0908 20.0457 21.6245 20.8034 22.1582 21.7372 22.6919 22.8585 23.2258 24.1672 23.7595 25.6383 24.2932 27.2436 24.827 28.9544 25.3607 30.7426 25.8944 32.5797 26.4283 34.4371 26.962 36.2866 27.4957 38.0997 28.0294 39.848 28.5632 41.5031 29.0969 43.0367 29.6307 44.4203 30.1645 45.6254 30.6982 46.6237 31.2319 47.3868 31.7656 47.8863 32.2995 48.0937 32.8332 47.9807 33.3669 47.5195 33.9007 46.7085 34.4344 45.5794 34.9681 44.1668 35.502 42.5048 36.0357 40.6277 36.5694 38.5699 37.1031 36.3656 37.6368 34.0491 38.1706 31.6546 38.7044 29.2165 39.2381 26.769 39.7719 24.3465 40.3056 21.9832 40.8393 19.7133 41.373 17.5712 41.9069 15.5911 42.4406 13.8074 42.9743 12.2542 43.5081 10.966 44.0418 9.97495 44.5755 9.28367 45.1094 8.87189 45.6431 8.71875 46.1768 8.80338 46.7105 9.10495 47.2443 9.60254 47.7781 10.2753 48.3118 11.1024 48.8456 12.063 49.3793 13.1362 49.913 14.301 50.4467 15.5368 50.9806 16.8227 51.5143 18.1376 52.048 19.4608 52.5818 20.7715 53.1155 22.0487 53.6492 23.2715 54.1831 24.4193 54.7168 25.473 55.2505 26.4299 55.7842 27.2941 56.318 28.0697 56.8517 28.7605 57.3855 29.3711 57.9193 29.9053 58.453 30.3673 58.9867 30.7613 59.5204 31.0913 60.0543 31.3615 60.588 31.576 61.1217 31.7389 61.6555 31.8543 62.1892 31.9264 62.7229 31.9594 63.2568 31.9572 63.7905 31.924 64.3242 31.8639 64.8579 31.7811" stroke="#1F77B4" stroke-width="1.30208" stroke-linecap="square" stroke-linejoin="round" fill="none" transform="matrix(1 0 0 1.20878 218 1093.9)"/></g><path d="M9.375 50.0625 9.375 6.75" stroke="#000000" stroke-width="1.30208" stroke-linecap="square" fill="none" transform="matrix(1 0 0 1.20878 218 1093.9)"/><path d="M67.5 50.0625 67.5 6.75" stroke="#000000" stroke-width="1.30208" stroke-linecap="square" fill="none" transform="matrix(1 0 0 1.20878 218 1093.9)"/><path d="M9.375 50.0625 67.5 50.0625" stroke="#000000" stroke-width="1.30208" stroke-linecap="square" fill="none" transform="matrix(1 0 0 1.20878 218 1093.9)"/><path d="M9.375 6.75 67.5 6.75" stroke="#000000" stroke-width="1.30208" stroke-linecap="square" fill="none" transform="matrix(1 0 0 1.20878 218 1093.9)"/></g></g></g><g clip-path="url(#clip21)"><g clip-path="url(#clip22)"><g clip-path="url(#clip23)"><path d="M0 56.25 75 56.25 75 0 0 0Z" fill="#FFFFFF" transform="matrix(1 0 0 1.22655 218 1458.87)"/><path d="M9.375 50.0625 67.5 50.0625 67.5 6.75 9.375 6.75Z" fill="#FFFFFF" transform="matrix(1 0 0 1.22655 218 1458.87)"/><g clip-path="url(#clip24)"><path d="M12.017 31.7165 12.5508 32.5053 13.0845 33.3723 13.6182 34.3017 14.1521 35.2779 14.6858 36.285 15.2195 37.3076 15.7533 38.3297 16.287 39.3357 16.8207 40.3098 17.3546 41.2363 17.8883 42.0996 18.422 42.8839 18.9557 43.5734 19.4895 44.1525 20.0233 44.6053 20.557 44.9164 21.0908 45.0698 21.6245 45.0499 22.1582 44.8409 22.6919 44.4271 23.2258 43.8023 23.7595 42.9814 24.2932 41.9818 24.827 40.8211 25.3607 39.5171 25.8944 38.087 26.4283 36.5487 26.962 34.9197 27.4957 33.2176 28.0294 31.4599 28.5632 29.6643 29.0969 27.8484 29.6307 26.0298 30.1645 24.226 30.6982 22.4547 31.2319 20.7333 31.7656 19.0796 32.2995 17.5111 32.8332 16.0453 33.3669 14.6999 33.9007 13.4854 34.4344 12.4043 34.9681 11.4584 35.502 10.6494 36.0357 9.97904 36.5694 9.44902 37.1031 9.06115 37.6368 8.81713 38.1706 8.71875 38.7044 8.76773 39.2381 8.96583 39.7719 9.3148 40.3056 9.81638 40.8393 10.4723 41.373 11.2844 41.9069 12.2543 42.4406 13.3839 42.9743 14.6746 43.5081 16.1286 44.0418 17.7465 44.5755 19.5143 45.1094 21.407 45.6431 23.3993 46.1768 25.4659 46.7105 27.581 47.2443 29.7195 47.7781 31.8561 48.3118 33.9652 48.8456 36.0215 49.3793 37.9996 49.913 39.8741 50.4467 41.6195 50.9806 43.2107 51.5143 44.622 52.048 45.8283 52.5818 46.8039 53.1155 47.5237 53.6492 47.9621 54.1831 48.0937 54.7168 47.8979 55.2505 47.3876 55.7842 46.5913 56.318 45.5371 56.8517 44.2536 57.3855 42.7691 57.9193 41.1119 58.453 39.3104 58.9867 37.3931 59.5204 35.3881 60.0543 33.3241 60.588 31.2292 61.1217 29.1319 61.6555 27.0604 62.1892 25.0434 62.7229 23.109 63.2568 21.2855 63.7905 19.6017 64.3242 18.0854 64.8579 16.7654" stroke="#1F77B4" stroke-width="1.30208" stroke-linecap="square" stroke-linejoin="round" fill="none" transform="matrix(1 0 0 1.22655 218 1458.87)"/></g><path d="M9.375 50.0625 9.375 6.75" stroke="#000000" stroke-width="1.30208" stroke-linecap="square" fill="none" transform="matrix(1 0 0 1.22655 218 1458.87)"/><path d="M67.5 50.0625 67.5 6.75" stroke="#000000" stroke-width="1.30208" stroke-linecap="square" fill="none" transform="matrix(1 0 0 1.22655 218 1458.87)"/><path d="M9.375 50.0625 67.5 50.0625" stroke="#000000" stroke-width="1.30208" stroke-linecap="square" fill="none" transform="matrix(1 0 0 1.22655 218 1458.87)"/><path d="M9.375 6.75 67.5 6.75" stroke="#000000" stroke-width="1.30208" stroke-linecap="square" fill="none" transform="matrix(1 0 0 1.22655 218 1458.87)"/></g></g></g><path d="M0 0 162.344 49.6619" stroke="#000000" stroke-width="5.99945" stroke-miterlimit="8" fill="none" fill-rule="evenodd" transform="matrix(1.00009 0 0 -1 62 1169.56)"/><path d="M64 1169.89 225.128 1193.08" stroke="#000000" stroke-width="6" stroke-miterlimit="8" fill="none" fill-rule="evenodd"/><path d="M790.5 1095.4C790.5 1089.32 794.306 1084.4 799 1084.4 803.694 1084.4 807.5 1089.32 807.5 1095.4 807.5 1101.47 803.694 1106.4 799 1106.4 794.306 1106.4 790.5 1101.47 790.5 1095.4Z" stroke="#000000" stroke-width="1.33333" stroke-miterlimit="8" fill-rule="evenodd"/><path d="M790.5 1289.38C790.5 1283.31 794.306 1278.38 799 1278.38 803.694 1278.38 807.5 1283.31 807.5 1289.38 807.5 1295.46 803.694 1300.38 799 1300.38 794.306 1300.38 790.5 1295.46 790.5 1289.38Z" stroke="#000000" stroke-width="1.33333" stroke-miterlimit="8" fill-rule="evenodd"/><path d="M790.5 1483.86C790.5 1478.07 794.306 1473.36 799 1473.36 803.694 1473.36 807.5 1478.07 807.5 1483.86 807.5 1489.66 803.694 1494.36 799 1494.36 794.306 1494.36 790.5 1489.66 790.5 1483.86Z" stroke="#000000" stroke-width="1.33333" stroke-miterlimit="8" fill-rule="evenodd"/><path d="M65 1168.89 224.339 1266.75" stroke="#000000" stroke-width="6" stroke-miterlimit="8" fill="none" fill-rule="evenodd"/><path d="M0 0 154.555 69.6613" stroke="#000000" stroke-width="5.99945" stroke-miterlimit="8" fill="none" fill-rule="evenodd" transform="matrix(1.00009 0 0 -1 70 1407.54)"/><path d="M62 1408.87 224.633 1410.89" stroke="#000000" stroke-width="6" stroke-miterlimit="8" fill="none" fill-rule="evenodd"/><path d="M64 1408.87 224.212 1487.07" stroke="#000000" stroke-width="6" stroke-miterlimit="8" fill="none" fill-rule="evenodd"/><path d="M0 0 145.125 108.354" stroke="#000000" stroke-width="5.99945" stroke-miterlimit="8" fill="none" fill-rule="evenodd" transform="matrix(1.00009 0 0 -1 286 1204.25)"/><path d="M0 0 146.34 183.956" stroke="#000000" stroke-width="5.99945" stroke-miterlimit="8" fill="none" fill-rule="evenodd" transform="matrix(1.00009 0 0 -1 286 1277.86)"/><path d="M286 1129.9 433.806 1291.57" stroke="#000000" stroke-width="6" stroke-miterlimit="8" fill="none" fill-rule="evenodd"/><path d="M0 0 145.587 209.63" stroke="#000000" stroke-width="5.99945" stroke-miterlimit="8" fill="none" fill-rule="evenodd" transform="matrix(1.00009 0 0 -1 286 1497.51)"/><path d="M286 1348.88 431.931 1485.41" stroke="#000000" stroke-width="6" stroke-miterlimit="8" fill="none" fill-rule="evenodd"/><path d="M285 1424.87 433.003 1484.26" stroke="#000000" stroke-width="6" stroke-miterlimit="8" fill="none" fill-rule="evenodd"/><g clip-path="url(#clip25)"><g clip-path="url(#clip26)"><g clip-path="url(#clip27)"><path d="M0 56.25 75 56.25 75 0 0 0Z" fill="#FFFFFF" transform="matrix(1 0 0 1.22655 581 1017.91)"/><path d="M9.375 50.0625 67.5 50.0625 67.5 6.75 9.375 6.75Z" fill="#FFFFFF" transform="matrix(1 0 0 1.22655 581 1017.91)"/><g clip-path="url(#clip28)"><path d="M12.017 40.5578 12.5508 41.6052 13.0845 42.6034 13.6182 43.5441 14.1521 44.4195 14.6858 45.2215 15.2195 45.9417 15.7533 46.5721 16.287 47.1047 16.8207 47.5312 17.3546 47.8438 17.8883 48.034 18.422 48.0937 18.9557 48.0151 19.4895 47.7898 20.0233 47.4099 20.557 46.8671 21.0908 46.1534 21.6245 45.2605 22.1582 44.1806 22.6919 42.9053 23.2258 41.4361 23.7595 39.7945 24.2932 38.0056 24.827 36.0939 25.3607 34.0841 25.8944 32.001 26.4283 29.8691 26.962 27.7133 27.4957 25.5582 28.0294 23.4285 28.5632 21.349 29.0969 19.3441 29.6307 17.4388 30.1645 15.6577 30.6982 14.0254 31.2319 12.5668 31.7656 11.3064 32.2995 10.269 32.8332 9.47923 33.3669 8.96131 33.9007 8.71875 34.4344 8.7282 34.9681 8.96458 35.502 9.40276 36.0357 10.0176 36.5694 10.7841 37.1031 11.677 37.6368 12.6713 38.1706 13.7418 38.7044 14.8635 39.2381 16.0112 39.7719 17.1598 40.3056 18.2842 40.8393 19.3594 41.373 20.36 41.9069 21.2612 42.4406 22.0376 42.9743 22.6645 43.5081 23.1164 44.0418 23.3699 44.5755 23.4264 45.1094 23.3062 45.6431 23.0301 46.1768 22.6187 46.7105 22.0931 47.2443 21.4738 47.7781 20.7818 48.3118 20.0376 48.8456 19.2624 49.3793 18.4767 49.913 17.7014 50.4467 16.9573 50.9806 16.2651 51.5143 15.6457 52.048 15.1199 52.5818 14.7083 53.1155 14.432 53.6492 14.3116 54.1831 14.3678 54.7168 14.6182 55.2505 15.0551 55.7842 15.6594 56.318 16.4122 56.8517 17.2945 57.3855 18.2874 57.9193 19.3719 58.453 20.5288 58.9867 21.7393 59.5204 22.9845 60.0543 24.2452 60.588 25.5025 61.1217 26.7374 61.6555 27.9309 62.1892 29.0641 62.7229 30.1178 63.2568 31.0734 63.7905 31.9116 64.3242 32.6134 64.8579 33.1599" stroke="#1F77B4" stroke-width="1.30208" stroke-linecap="square" stroke-linejoin="round" fill="none" transform="matrix(1 0 0 1.22655 581 1017.91)"/></g><path d="M9.375 50.0625 9.375 6.75" stroke="#000000" stroke-width="1.30208" stroke-linecap="square" fill="none" transform="matrix(1 0 0 1.22655 581 1017.91)"/><path d="M67.5 50.0625 67.5 6.75" stroke="#000000" stroke-width="1.30208" stroke-linecap="square" fill="none" transform="matrix(1 0 0 1.22655 581 1017.91)"/><path d="M9.375 50.0625 67.5 50.0625" stroke="#000000" stroke-width="1.30208" stroke-linecap="square" fill="none" transform="matrix(1 0 0 1.22655 581 1017.91)"/><path d="M9.375 6.75 67.5 6.75" stroke="#000000" stroke-width="1.30208" stroke-linecap="square" fill="none" transform="matrix(1 0 0 1.22655 581 1017.91)"/></g></g></g><g clip-path="url(#clip29)"><g clip-path="url(#clip30)"><g clip-path="url(#clip31)"><path d="M0 56.25 75 56.25 75 0 0 0Z" fill="#FFFFFF" transform="matrix(1 0 0 1.22655 581 1080.9)"/><path d="M9.375 50.0625 67.5 50.0625 67.5 6.75 9.375 6.75Z" fill="#FFFFFF" transform="matrix(1 0 0 1.22655 581 1080.9)"/><g clip-path="url(#clip32)"><path d="M12.017 48.0937 12.5508 47.5702 13.0845 46.8802 13.6182 46.0363 14.1521 45.0514 14.6858 43.9383 15.2195 42.7098 15.7533 41.3785 16.287 39.9574 16.8207 38.4592 17.3546 36.8969 17.8883 35.2829 18.422 33.6302 18.9557 31.9516 19.4895 30.2598 20.0233 28.5677 20.557 26.8879 21.0908 25.2335 21.6245 23.6168 22.1582 22.051 22.6919 20.5488 23.2258 19.1202 23.7595 17.7691 24.2932 16.499 24.827 15.3128 25.3607 14.2137 25.8944 13.2049 26.4283 12.2898 26.962 11.4713 27.4957 10.7528 28.0294 10.1374 28.5632 9.62835 29.0969 9.22875 29.6307 8.94182 30.1645 8.77075 30.6982 8.71875 31.2319 8.78898 31.7656 8.98465 32.2995 9.30892 32.8332 9.765 33.3669 10.3559 33.9007 11.0771 34.4344 11.9148 34.9681 12.8541 35.502 13.8803 36.0357 14.9789 36.5694 16.1352 37.1031 17.3344 37.6368 18.5617 38.1706 19.8027 38.7044 21.0427 39.2381 22.2668 39.7719 23.4604 40.3056 24.609 40.8393 25.6978 41.373 26.712 41.9069 27.637 42.4406 28.4582 42.9743 29.1608 43.5081 29.7302 44.0418 30.1526 44.5755 30.4288 45.1094 30.5704 45.6431 30.5895 46.1768 30.498 46.7105 30.3082 47.2443 30.0319 47.7781 29.6811 48.3118 29.2678 48.8456 28.8043 49.3793 28.3023 49.913 27.7741 50.4467 27.2314 50.9806 26.6865 51.5143 26.1512 52.048 25.6378 52.5818 25.1579 53.1155 24.7241 53.6492 24.3479 54.1831 24.0415 54.7168 23.8155 55.2505 23.6686 55.7842 23.5948 56.318 23.5878 56.8517 23.6411 57.3855 23.7487 57.9193 23.9043 58.453 24.1017 58.9867 24.3345 59.5204 24.5965 60.0543 24.8814 60.588 25.1831 61.1217 25.4952 61.6555 25.8115 62.1892 26.1257 62.7229 26.4316 63.2568 26.7229 63.7905 26.9935 64.3242 27.237 64.8579 27.4471" stroke="#1F77B4" stroke-width="1.30208" stroke-linecap="square" stroke-linejoin="round" fill="none" transform="matrix(1 0 0 1.22655 581 1080.9)"/></g><path d="M9.375 50.0625 9.375 6.75" stroke="#000000" stroke-width="1.30208" stroke-linecap="square" fill="none" transform="matrix(1 0 0 1.22655 581 1080.9)"/><path d="M67.5 50.0625 67.5 6.75" stroke="#000000" stroke-width="1.30208" stroke-linecap="square" fill="none" transform="matrix(1 0 0 1.22655 581 1080.9)"/><path d="M9.375 50.0625 67.5 50.0625" stroke="#000000" stroke-width="1.30208" stroke-linecap="square" fill="none" transform="matrix(1 0 0 1.22655 581 1080.9)"/><path d="M9.375 6.75 67.5 6.75" stroke="#000000" stroke-width="1.30208" stroke-linecap="square" fill="none" transform="matrix(1 0 0 1.22655 581 1080.9)"/></g></g></g><g clip-path="url(#clip33)"><g clip-path="url(#clip34)"><g clip-path="url(#clip35)"><path d="M0 56.25 75 56.25 75 0 0 0Z" fill="#FFFFFF" transform="matrix(1 0 0 1.22655 581 1143.89)"/><path d="M9.375 50.0625 67.5 50.0625 67.5 6.75 9.375 6.75Z" fill="#FFFFFF" transform="matrix(1 0 0 1.22655 581 1143.89)"/><g clip-path="url(#clip36)"><path d="M12.017 34.1996 12.5508 33.3105 13.0845 32.304 13.6182 31.1941 14.1521 29.9951 14.6858 28.7207 15.2195 27.3855 15.7533 26.0036 16.287 24.5891 16.8207 23.1561 17.3546 21.7188 17.8883 20.2913 18.422 18.8878 18.9557 17.5225 19.4895 16.2095 20.0233 14.9629 20.557 13.797 21.0908 12.7259 21.6245 11.7637 22.1582 10.9246 22.6919 10.2227 23.2258 9.66547 23.7595 9.24574 24.2932 8.95422 24.827 8.78164 25.3607 8.71875 25.8944 8.7563 26.4283 8.88503 26.962 9.09568 27.4957 9.379 28.0294 9.72573 28.5632 10.1266 29.0969 10.5724 29.6307 11.0539 30.1645 11.5617 30.6982 12.0867 31.2319 12.6195 31.7656 13.1509 32.2995 13.6717 32.8332 14.1728 33.3669 14.6447 33.9007 15.0855 34.4344 15.502 34.9681 15.9012 35.502 16.2908 36.0357 16.678 36.5694 17.0701 37.1031 17.4745 37.6368 17.8984 38.1706 18.3493 38.7044 18.8346 39.2381 19.3615 39.7719 19.9374 40.3056 20.5695 40.8393 21.2654 41.373 22.0322 41.9069 22.8773 42.4406 23.8082 42.9743 24.832 43.5081 25.9562 44.0418 27.1872 44.5755 28.5173 45.1094 29.9279 45.6431 31.4001 46.1768 32.9152 46.7105 34.4546 47.2443 35.999 47.7781 37.5299 48.3118 39.0285 48.8456 40.4758 49.3793 41.8533 49.913 43.1417 50.4467 44.3227 50.9806 45.3771 51.5143 46.2862 52.048 47.0312 52.5818 47.5935 53.1155 47.9539 53.6492 48.0937 54.1831 47.9943 54.7168 47.6401 55.2505 47.0417 55.7842 46.2208 56.318 45.1997 56.8517 44.0001 57.3855 42.6443 57.9193 41.154 58.453 39.5513 58.9867 37.8582 59.5204 36.0967 60.0543 34.2888 60.588 32.4565 61.1217 30.6217 61.6555 28.8065 62.1892 27.0328 62.7229 25.3227 63.2568 23.698 63.7905 22.181 64.3242 20.7935 64.8579 19.5574" stroke="#1F77B4" stroke-width="1.30208" stroke-linecap="square" stroke-linejoin="round" fill="none" transform="matrix(1 0 0 1.22655 581 1143.89)"/></g><path d="M9.375 50.0625 9.375 6.75" stroke="#000000" stroke-width="1.30208" stroke-linecap="square" fill="none" transform="matrix(1 0 0 1.22655 581 1143.89)"/><path d="M67.5 50.0625 67.5 6.75" stroke="#000000" stroke-width="1.30208" stroke-linecap="square" fill="none" transform="matrix(1 0 0 1.22655 581 1143.89)"/><path d="M9.375 50.0625 67.5 50.0625" stroke="#000000" stroke-width="1.30208" stroke-linecap="square" fill="none" transform="matrix(1 0 0 1.22655 581 1143.89)"/><path d="M9.375 6.75 67.5 6.75" stroke="#000000" stroke-width="1.30208" stroke-linecap="square" fill="none" transform="matrix(1 0 0 1.22655 581 1143.89)"/></g></g></g><g clip-path="url(#clip37)"><g clip-path="url(#clip38)"><g clip-path="url(#clip39)"><path d="M0 56.25 75 56.25 75 0 0 0Z" fill="#FFFFFF" transform="matrix(1 0 0 1.22655 581 1206.89)"/><path d="M9.375 50.0625 67.5 50.0625 67.5 6.75 9.375 6.75Z" fill="#FFFFFF" transform="matrix(1 0 0 1.22655 581 1206.89)"/><g clip-path="url(#clip40)"><path d="M12.017 47.7652 12.5508 47.7016 13.0845 47.5284 13.6182 47.2492 14.1521 46.8668 14.6858 46.3846 15.2195 45.8055 15.7533 45.1327 16.287 44.3694 16.8207 43.5186 17.3546 42.5835 17.8883 41.5672 18.422 40.4729 18.9557 39.3036 19.4895 38.0626 20.0233 36.753 20.557 35.3777 21.0908 33.9401 21.6245 32.4432 22.1582 30.8902 22.6919 29.2841 23.2258 27.6322 23.7595 25.9503 24.2932 24.2552 24.827 22.5643 25.3607 20.8945 25.8944 19.263 26.4283 17.6868 26.962 16.1829 27.4957 14.7684 28.0294 13.4604 28.5632 12.2759 29.0969 11.232 29.6307 10.3458 30.1645 9.63426 30.6982 9.11454 31.2319 8.80368 31.7656 8.71875 32.2995 8.8768 32.8332 9.29488 33.3669 9.98961 33.9007 10.9593 34.4344 12.1785 34.9681 13.6202 35.502 15.2574 36.0357 17.0632 36.5694 19.0103 37.1031 21.0717 37.6368 23.2208 38.1706 25.4301 38.7044 27.6729 39.2381 29.922 39.7719 32.1505 40.3056 34.3312 40.8393 36.4374 41.373 38.4417 41.9069 40.3174 42.4406 42.0372 42.9743 43.5745 43.5081 44.9018 44.0418 45.9937 44.5755 46.8458 45.1094 47.4697 45.6431 47.8776 46.1768 48.0815 46.7105 48.0937 47.2443 47.9264 47.7781 47.5915 48.3118 47.1014 48.8456 46.4681 49.3793 45.7036 49.913 44.8204 50.4467 43.8305 50.9806 42.746 51.5143 41.5789 52.048 40.3417 52.5818 39.0461 53.1155 37.7047 53.6492 36.3293 54.1831 34.9322 54.7168 33.525 55.2505 32.1155 55.7842 30.71 56.318 29.3146 56.8517 27.9353 57.3855 26.5784 57.9193 25.25 58.453 23.9562 58.9867 22.7034 59.5204 21.4974 60.0543 20.3445 60.588 19.2509 61.1217 18.2228 61.6555 17.2661 62.1892 16.3872 62.7229 15.5922 63.2568 14.8871 63.7905 14.2783 64.3242 13.7716 64.8579 13.3736" stroke="#1F77B4" stroke-width="1.30208" stroke-linecap="square" stroke-linejoin="round" fill="none" transform="matrix(1 0 0 1.22655 581 1206.89)"/></g><path d="M9.375 50.0625 9.375 6.75" stroke="#000000" stroke-width="1.30208" stroke-linecap="square" fill="none" transform="matrix(1 0 0 1.22655 581 1206.89)"/><path d="M67.5 50.0625 67.5 6.75" stroke="#000000" stroke-width="1.30208" stroke-linecap="square" fill="none" transform="matrix(1 0 0 1.22655 581 1206.89)"/><path d="M9.375 50.0625 67.5 50.0625" stroke="#000000" stroke-width="1.30208" stroke-linecap="square" fill="none" transform="matrix(1 0 0 1.22655 581 1206.89)"/><path d="M9.375 6.75 67.5 6.75" stroke="#000000" stroke-width="1.30208" stroke-linecap="square" fill="none" transform="matrix(1 0 0 1.22655 581 1206.89)"/></g></g></g><g clip-path="url(#clip41)"><g clip-path="url(#clip42)"><g clip-path="url(#clip43)"><path d="M0 56.25 75 56.25 75 0 0 0Z" fill="#FFFFFF" transform="matrix(1 0 0 1.20878 581 1270.88)"/><path d="M9.375 50.0625 67.5 50.0625 67.5 6.75 9.375 6.75Z" fill="#FFFFFF" transform="matrix(1 0 0 1.20878 581 1270.88)"/><g clip-path="url(#clip44)"><path d="M12.017 48.0937 12.5508 48.0504 13.0845 47.8979 13.6182 47.6441 14.1521 47.2969 14.6858 46.8637 15.2195 46.3523 15.7533 45.7708 16.287 45.1266 16.8207 44.4275 17.3546 43.6812 17.8883 42.8956 18.422 42.0784 18.9557 41.2371 19.4895 40.3797 20.0233 39.5139 20.557 38.6474 21.0908 37.7879 21.6245 36.9431 22.1582 36.121 22.6919 35.3289 23.2258 34.5729 23.7595 33.8544 24.2932 33.1743 24.827 32.5333 25.3607 31.9324 25.8944 31.3723 26.4283 30.8539 26.962 30.3783 27.4957 29.946 28.0294 29.5579 28.5632 29.2151 29.0969 28.9184 29.6307 28.6684 30.1645 28.4661 30.6982 28.3125 31.2319 28.2083 31.7656 28.1544 32.2995 28.1517 32.8332 28.2009 33.3669 28.303 33.9007 28.4551 34.4344 28.6499 34.9681 28.8799 35.502 29.1376 36.0357 29.4155 36.5694 29.706 37.1031 30.0014 37.6368 30.2943 38.1706 30.5771 38.7044 30.8422 39.2381 31.082 39.7719 31.2891 40.3056 31.4559 40.8393 31.5747 41.373 31.638 41.9069 31.6384 42.4406 31.5682 42.9743 31.4199 43.5081 31.1859 44.0418 30.8592 44.5755 30.4409 45.1094 29.9376 45.6431 29.357 46.1768 28.7062 46.7105 27.9924 47.2443 27.2228 47.7781 26.4047 48.3118 25.5452 48.8456 24.6517 49.3793 23.7312 49.913 22.7913 50.4467 21.8389 50.9806 20.8814 51.5143 19.926 52.048 18.9798 52.5818 18.0503 53.1155 17.1444 53.6492 16.2697 54.1831 15.4331 54.7168 14.6413 55.2505 13.8969 55.7842 13.2004 56.318 12.552 56.8517 11.9525 57.3855 11.4023 57.9193 10.9018 58.453 10.4516 58.9867 10.0521 59.5204 9.70395 60.0543 9.4075 60.588 9.16329 61.1217 8.97182 61.6555 8.83358 62.1892 8.74906 62.7229 8.71875 63.2568 8.74315 63.7905 8.82276 64.3242 8.95805 64.8579 9.14954" stroke="#1F77B4" stroke-width="1.30208" stroke-linecap="square" stroke-linejoin="round" fill="none" transform="matrix(1 0 0 1.20878 581 1270.88)"/></g><path d="M9.375 50.0625 9.375 6.75" stroke="#000000" stroke-width="1.30208" stroke-linecap="square" fill="none" transform="matrix(1 0 0 1.20878 581 1270.88)"/><path d="M67.5 50.0625 67.5 6.75" stroke="#000000" stroke-width="1.30208" stroke-linecap="square" fill="none" transform="matrix(1 0 0 1.20878 581 1270.88)"/><path d="M9.375 50.0625 67.5 50.0625" stroke="#000000" stroke-width="1.30208" stroke-linecap="square" fill="none" transform="matrix(1 0 0 1.20878 581 1270.88)"/><path d="M9.375 6.75 67.5 6.75" stroke="#000000" stroke-width="1.30208" stroke-linecap="square" fill="none" transform="matrix(1 0 0 1.20878 581 1270.88)"/></g></g></g><g clip-path="url(#clip45)"><g clip-path="url(#clip46)"><g clip-path="url(#clip47)"><path d="M0 56.25 75 56.25 75 0 0 0Z" fill="#FFFFFF" transform="matrix(1 0 0 1.22655 581 1333.88)"/><path d="M9.375 50.0625 67.5 50.0625 67.5 6.75 9.375 6.75Z" fill="#FFFFFF" transform="matrix(1 0 0 1.22655 581 1333.88)"/><g clip-path="url(#clip48)"><path d="M12.017 48.0937 12.5508 46.8384 13.0845 45.4147 13.6182 43.8473 14.1521 42.1605 14.6858 40.3793 15.2195 38.5281 15.7533 36.6316 16.287 34.7146 16.8207 32.8014 17.3546 30.9169 17.8883 29.0857 18.422 27.3323 18.9557 25.6814 19.4895 24.1577 20.0233 22.7857 20.557 21.5901 21.0908 20.5957 21.6245 19.8268 22.1582 19.3082 22.6919 19.0646 23.2258 19.1049 23.7595 19.4047 24.2932 19.9342 24.827 20.6642 25.3607 21.5651 25.8944 22.6074 26.4283 23.7617 26.962 24.9987 27.4957 26.2887 28.0294 27.6023 28.5632 28.9103 29.0969 30.1828 29.6307 31.3908 30.1645 32.5044 30.6982 33.4945 31.2319 34.3315 31.7656 34.9859 32.2995 35.4284 32.8332 35.6294 33.3669 35.5602 33.9007 35.2145 34.4344 34.6161 34.9681 33.7908 35.502 32.7638 36.0357 31.5611 36.5694 30.2081 37.1031 28.7305 37.6368 27.1539 38.1706 25.504 38.7044 23.8062 39.2381 22.0865 39.7719 20.3702 40.3056 18.6829 40.8393 17.0505 41.373 15.4983 41.9069 14.0522 42.4406 12.7376 42.9743 11.5803 43.5081 10.6058 44.0418 9.83827 44.5755 9.28023 45.1094 8.91741 45.6431 8.73514 46.1768 8.71875 46.7105 8.85357 47.2443 9.12491 47.7781 9.51812 48.3118 10.0185 48.8456 10.6114 49.3793 11.2822 49.913 12.0161 50.4467 12.7985 50.9806 13.6147 51.5143 14.4501 52.048 15.29 52.5818 16.1195 53.1155 16.9243 53.6492 17.6896 54.1831 18.4007 54.7168 19.0444 55.2505 19.6204 55.7842 20.1337 56.318 20.5895 56.8517 20.9924 57.3855 21.3478 57.9193 21.6607 58.453 21.9361 58.9867 22.1792 59.5204 22.3947 60.0543 22.588 60.588 22.7639 61.1217 22.9277 61.6555 23.0844 62.1892 23.2388 62.7229 23.3962 63.2568 23.5616 63.7905 23.74 64.3242 23.9365 64.8579 24.156" stroke="#1F77B4" stroke-width="1.30208" stroke-linecap="square" stroke-linejoin="round" fill="none" transform="matrix(1 0 0 1.22655 581 1333.88)"/></g><path d="M9.375 50.0625 9.375 6.75" stroke="#000000" stroke-width="1.30208" stroke-linecap="square" fill="none" transform="matrix(1 0 0 1.22655 581 1333.88)"/><path d="M67.5 50.0625 67.5 6.75" stroke="#000000" stroke-width="1.30208" stroke-linecap="square" fill="none" transform="matrix(1 0 0 1.22655 581 1333.88)"/><path d="M9.375 50.0625 67.5 50.0625" stroke="#000000" stroke-width="1.30208" stroke-linecap="square" fill="none" transform="matrix(1 0 0 1.22655 581 1333.88)"/><path d="M9.375 6.75 67.5 6.75" stroke="#000000" stroke-width="1.30208" stroke-linecap="square" fill="none" transform="matrix(1 0 0 1.22655 581 1333.88)"/></g></g></g><g clip-path="url(#clip49)"><g clip-path="url(#clip50)"><g clip-path="url(#clip51)"><path d="M0 56.25 75 56.25 75 0 0 0Z" fill="#FFFFFF" transform="matrix(1 0 0 1.22655 581 1459.87)"/><path d="M9.375 50.0625 67.5 50.0625 67.5 6.75 9.375 6.75Z" fill="#FFFFFF" transform="matrix(1 0 0 1.22655 581 1459.87)"/><g clip-path="url(#clip52)"><path d="M12.017 26.7551 12.5508 25.9721 13.0845 25.1301 13.6182 24.2378 14.1521 23.3036 14.6858 22.3361 15.2195 21.3437 15.7533 20.3352 16.287 19.3187 16.8207 18.3031 17.3546 17.2967 17.8883 16.3082 18.422 15.346 18.9557 14.4185 19.4895 13.5345 20.0233 12.7023 20.557 11.9305 21.0908 11.2276 21.6245 10.6022 22.1582 10.0628 22.6919 9.61776 23.2258 9.27104 23.7595 9.0159 24.2932 8.84421 24.827 8.74786 25.3607 8.71875 25.8944 8.74876 26.4283 8.8298 26.962 8.95374 27.4957 9.11246 28.0294 9.29785 28.5632 9.50182 29.0969 9.71625 29.6307 9.93302 30.1645 10.144 30.6982 10.3411 31.2319 10.5163 31.7656 10.6613 32.2995 10.7681 32.8332 10.8286 33.3669 10.8349 33.9007 10.7872 34.4344 10.6963 34.9681 10.5739 35.502 10.4315 36.0357 10.2807 36.5694 10.133 37.1031 9.99995 37.6368 9.89314 38.1706 9.82413 38.7044 9.80447 39.2381 9.84573 39.7719 9.95944 40.3056 10.1572 40.8393 10.4506 41.373 10.8511 41.9069 11.3703 42.4406 12.0197 42.9743 12.8111 43.5081 13.7557 44.0418 14.8643 44.5755 16.1313 45.1094 17.5389 45.6431 19.0691 46.1768 20.7038 46.7105 22.4249 47.2443 24.2143 47.7781 26.054 48.3118 27.9259 48.8456 29.8118 49.3793 31.6937 49.913 33.5536 50.4467 35.3734 50.9806 37.135 51.5143 38.8202 52.048 40.4111 52.5818 41.8896 53.1155 43.2374 53.6492 44.4367 54.1831 45.4693 54.7168 46.3195 55.2505 46.9902 55.7842 47.4921 56.318 47.8361 56.8517 48.0329 57.3855 48.0937 57.9193 48.0293 58.453 47.8504 58.9867 47.5681 59.5204 47.1931 60.0543 46.7363 60.588 46.2089 61.1217 45.6212 61.6555 44.9846 62.1892 44.3099 62.7229 43.6077 63.2568 42.8892 63.7905 42.1651 64.3242 41.4462 64.8579 40.7437" stroke="#1F77B4" stroke-width="1.30208" stroke-linecap="square" stroke-linejoin="round" fill="none" transform="matrix(1 0 0 1.22655 581 1459.87)"/></g><path d="M9.375 50.0625 9.375 6.75" stroke="#000000" stroke-width="1.30208" stroke-linecap="square" fill="none" transform="matrix(1 0 0 1.22655 581 1459.87)"/><path d="M67.5 50.0625 67.5 6.75" stroke="#000000" stroke-width="1.30208" stroke-linecap="square" fill="none" transform="matrix(1 0 0 1.22655 581 1459.87)"/><path d="M9.375 50.0625 67.5 50.0625" stroke="#000000" stroke-width="1.30208" stroke-linecap="square" fill="none" transform="matrix(1 0 0 1.22655 581 1459.87)"/><path d="M9.375 6.75 67.5 6.75" stroke="#000000" stroke-width="1.30208" stroke-linecap="square" fill="none" transform="matrix(1 0 0 1.22655 581 1459.87)"/></g></g></g><g clip-path="url(#clip53)"><g clip-path="url(#clip54)"><g clip-path="url(#clip55)"><path d="M0 56.25 75 56.25 75 0 0 0Z" fill="#FFFFFF" transform="matrix(1 0 0 1.22655 581 1396.87)"/><path d="M9.375 50.0625 67.5 50.0625 67.5 6.75 9.375 6.75Z" fill="#FFFFFF" transform="matrix(1 0 0 1.22655 581 1396.87)"/><g clip-path="url(#clip56)"><path d="M12.017 48.0937 12.5508 48.0512 13.0845 47.9156 13.6182 47.6891 14.1521 47.3736 14.6858 46.9714 15.2195 46.4844 15.7533 45.9146 16.287 45.2642 16.8207 44.5352 17.3546 43.7296 17.8883 42.8495 18.422 41.897 18.9557 40.8741 19.4895 39.7828 20.0233 38.6253 20.557 37.4036 21.0908 36.1197 21.6245 34.7757 22.1582 33.3736 22.6919 31.9155 23.2258 30.4066 23.7595 28.8585 24.2932 27.2839 24.827 25.6953 25.3607 24.1056 25.8944 22.5273 26.4283 20.973 26.962 19.4557 27.4957 17.9876 28.0294 16.5816 28.5632 15.2504 29.0969 14.0065 29.6307 12.8627 30.1645 11.8315 30.6982 10.9256 31.2319 10.1577 31.7656 9.54047 32.2995 9.0865 32.8332 8.80846 33.3669 8.71875 33.9007 8.81875 34.4344 9.09564 34.9681 9.53564 35.502 10.1249 36.0357 10.8498 36.5694 11.6964 37.1031 12.6509 37.6368 13.6996 38.1706 14.8288 38.7044 16.0245 39.2381 17.273 39.7719 18.5607 40.3056 19.8734 40.8393 21.1978 41.373 22.5198 41.9069 23.8257 42.4406 25.1017 42.9743 26.334 43.5081 27.5089 44.0418 28.613 44.5755 29.6406 45.1094 30.5914 45.6431 31.4655 46.1768 32.263 46.7105 32.9839 47.2443 33.6281 47.7781 34.1958 48.3118 34.687 48.8456 35.1016 49.3793 35.4397 49.913 35.7014 50.4467 35.8866 50.9806 35.9954 51.5143 36.0279 52.048 35.984 52.5818 35.8637 53.1155 35.6672 53.6492 35.3944 54.1831 35.0453 54.7168 34.6207 55.2505 34.1263 55.7842 33.57 56.318 32.9599 56.8517 32.3039 57.3855 31.6099 57.9193 30.8859 58.453 30.1401 58.9867 29.3803 59.5204 28.6145 60.0543 27.8505 60.588 27.0966 61.1217 26.3607 61.6555 25.6505 62.1892 24.9743 62.7229 24.34 63.2568 23.7555 63.7905 23.2286 64.3242 22.7677 64.8579 22.3806" stroke="#1F77B4" stroke-width="1.30208" stroke-linecap="square" stroke-linejoin="round" fill="none" transform="matrix(1 0 0 1.22655 581 1396.87)"/></g><path d="M9.375 50.0625 9.375 6.75" stroke="#000000" stroke-width="1.30208" stroke-linecap="square" fill="none" transform="matrix(1 0 0 1.22655 581 1396.87)"/><path d="M67.5 50.0625 67.5 6.75" stroke="#000000" stroke-width="1.30208" stroke-linecap="square" fill="none" transform="matrix(1 0 0 1.22655 581 1396.87)"/><path d="M9.375 50.0625 67.5 50.0625" stroke="#000000" stroke-width="1.30208" stroke-linecap="square" fill="none" transform="matrix(1 0 0 1.22655 581 1396.87)"/><path d="M9.375 6.75 67.5 6.75" stroke="#000000" stroke-width="1.30208" stroke-linecap="square" fill="none" transform="matrix(1 0 0 1.22655 581 1396.87)"/></g></g></g><g clip-path="url(#clip57)"><g clip-path="url(#clip58)"><g clip-path="url(#clip59)"><path d="M0 56.25 75 56.25 75 0 0 0Z" fill="#FFFFFF" transform="matrix(1 0 0 1.22655 581 1522.86)"/><path d="M9.375 50.0625 67.5 50.0625 67.5 6.75 9.375 6.75Z" fill="#FFFFFF" transform="matrix(1 0 0 1.22655 581 1522.86)"/><g clip-path="url(#clip60)"><path d="M12.017 27.0484 12.5508 26.3783 13.0845 25.6436 13.6182 24.8585 14.1521 24.0365 14.6858 23.1914 15.2195 22.3368 15.7533 21.4865 16.287 20.6543 16.8207 19.8536 17.3546 19.0986 17.8883 18.4025 18.422 17.7794 18.9557 17.2428 19.4895 16.8065 20.0233 16.4842 20.557 16.2896 21.0908 16.2365 21.6245 16.3384 22.1582 16.6091 22.6919 17.0625 23.2258 17.7033 23.7595 18.5171 24.2932 19.4868 24.827 20.5956 25.3607 21.8262 25.8944 23.1615 26.4283 24.5844 26.962 26.0779 27.4957 27.625 28.0294 29.2086 28.5632 30.8116 29.0969 32.4168 29.6307 34.0073 30.1645 35.566 30.6982 37.0759 31.2319 38.5197 31.7656 39.8805 32.2995 41.1411 32.8332 42.2846 33.3669 43.2941 33.9007 44.16 34.4344 44.8829 34.9681 45.4638 35.502 45.9036 36.0357 46.2034 36.5694 46.3641 37.1031 46.3868 37.6368 46.2727 38.1706 46.0224 38.7044 45.6372 39.2381 45.1181 39.7719 44.466 40.3056 43.6822 40.8393 42.7673 41.373 41.7225 41.9069 40.549 42.4406 39.2475 42.9743 37.8193 43.5081 36.2651 44.0418 34.5871 44.5755 32.7992 45.1094 30.9251 45.6431 28.9888 46.1768 27.0142 46.7105 25.025 47.2443 23.0452 47.7781 21.0987 48.3118 19.2095 48.8456 17.4013 49.3793 15.698 49.913 14.1237 50.4467 12.7021 50.9806 11.4572 51.5143 10.4128 52.048 9.5929 52.5818 9.02131 53.1155 8.72197 53.6492 8.71875 54.1831 9.03555 54.7168 9.69156 55.2505 10.6712 55.7842 11.9434 56.318 13.477 56.8517 15.2406 57.3855 17.2031 57.9193 19.3335 58.453 21.6003 58.9867 23.9724 59.5204 26.4187 60.0543 28.9079 60.588 31.4087 61.1217 33.8902 61.6555 36.321 62.1892 38.6698 62.7229 40.9056 63.2568 42.997 63.7905 44.913 64.3242 46.6224 64.8579 48.0937" stroke="#1F77B4" stroke-width="1.30208" stroke-linecap="square" stroke-linejoin="round" fill="none" transform="matrix(1 0 0 1.22655 581 1522.86)"/></g><path d="M9.375 50.0625 9.375 6.75" stroke="#000000" stroke-width="1.30208" stroke-linecap="square" fill="none" transform="matrix(1 0 0 1.22655 581 1522.86)"/><path d="M67.5 50.0625 67.5 6.75" stroke="#000000" stroke-width="1.30208" stroke-linecap="square" fill="none" transform="matrix(1 0 0 1.22655 581 1522.86)"/><path d="M9.375 50.0625 67.5 50.0625" stroke="#000000" stroke-width="1.30208" stroke-linecap="square" fill="none" transform="matrix(1 0 0 1.22655 581 1522.86)"/><path d="M9.375 6.75 67.5 6.75" stroke="#000000" stroke-width="1.30208" stroke-linecap="square" fill="none" transform="matrix(1 0 0 1.22655 581 1522.86)"/></g></g></g><path d="M0 0 153.829 41.039" stroke="#000000" stroke-width="5.99945" stroke-miterlimit="8" fill="none" fill-rule="evenodd" transform="matrix(1.00009 0 0 -1 438 1091.94)"/><path d="M431 1093.9 590.375 1117.34" stroke="#000000" stroke-width="6" stroke-miterlimit="8" fill="none" fill-rule="evenodd"/><path d="M431 1094.9 590.375 1180.23" stroke="#000000" stroke-width="6" stroke-miterlimit="8" fill="none" fill-rule="evenodd"/><path d="M0 0 159.062 46.8906" stroke="#000000" stroke-width="5.99945" stroke-miterlimit="8" fill="none" fill-rule="evenodd" transform="matrix(1.00009 0 0 -1 431 1289.78)"/><path d="M431 1288.88 590.076 1306.73" stroke="#000000" stroke-width="6" stroke-miterlimit="8" fill="none" fill-rule="evenodd"/><path d="M430 1287.88 590.553 1368.37" stroke="#000000" stroke-width="6" stroke-miterlimit="8" fill="none" fill-rule="evenodd"/><path d="M0 0 158.525 53.0823" stroke="#000000" stroke-width="5.99945" stroke-miterlimit="8" fill="none" fill-rule="evenodd" transform="matrix(1.00009 0 0 -1 432 1483.95)"/><path d="M431 1483.86 591.493 1494.02" stroke="#000000" stroke-width="6" stroke-miterlimit="8" fill="none" fill-rule="evenodd"/><path d="M430 1482.86 590.553 1563.35" stroke="#000000" stroke-width="6" stroke-miterlimit="8" fill="none" fill-rule="evenodd"/><path d="M0 0 151.46 147.597" stroke="#000000" stroke-width="5.99945" stroke-miterlimit="8" fill="none" fill-rule="evenodd" transform="matrix(1.00009 0 0 -1 649 1241.5)"/><path d="M0 0 149.948 85.6528" stroke="#000000" stroke-width="5.99945" stroke-miterlimit="8" fill="none" fill-rule="evenodd" transform="matrix(1.00009 0 0 -1 649 1181.55)"/><path d="M649 1052.9 798.775 1290.24" stroke="#000000" stroke-width="6" stroke-miterlimit="8" fill="none" fill-rule="evenodd"/><path d="M0 0 149.658 79.3612" stroke="#000000" stroke-width="5.99945" stroke-miterlimit="8" fill="none" fill-rule="evenodd" transform="matrix(1.00009 0 0 -1 649 1368.24)"/><path d="M0 0 149.404 273.886" stroke="#000000" stroke-width="5.99945" stroke-miterlimit="8" fill="none" fill-rule="evenodd" transform="matrix(1.00009 0 0 -1 650 1562.77)"/><path d="M0 0 149.948 339.789" stroke="#000000" stroke-width="5.99945" stroke-miterlimit="8" fill="none" fill-rule="evenodd" transform="matrix(1.00009 0 0 -1 650 1433.69)"/><path d="M0 0 142.169 8.96285" stroke="#000000" stroke-width="5.99945" stroke-miterlimit="8" fill="none" fill-rule="evenodd" transform="matrix(1.00009 0 0 -1 648 1492.83)"/><path d="M649 1306.88 798.829 1483.73" stroke="#000000" stroke-width="6" stroke-miterlimit="8" fill="none" fill-rule="evenodd"/><path d="M650 1119.9 799.081 1484.7" stroke="#000000" stroke-width="6" stroke-miterlimit="8" fill="none" fill-rule="evenodd"/><path d="M432 1022.91 432.465 1601.82" stroke="#000000" stroke-width="6" stroke-miterlimit="8" stroke-dasharray="24 18 6 18" fill="none" fill-rule="evenodd"/><path d="M800 1022.91 800.465 1601.82" stroke="#000000" stroke-width="6" stroke-miterlimit="8" stroke-dasharray="24 18 6 18" fill="none" fill-rule="evenodd"/><path d="M1165 1022.91 1165.46 1601.82" stroke="#000000" stroke-width="6" stroke-miterlimit="8" stroke-dasharray="24 18 6 18" fill="none" fill-rule="evenodd"/><g clip-path="url(#clip61)"><g clip-path="url(#clip62)"><g clip-path="url(#clip63)"><path d="M0 56.25 75 56.25 75 0 0 0Z" fill="#FFFFFF" transform="matrix(1 0 0 1.22655 956 1061.9)"/><path d="M9.375 50.0625 67.5 50.0625 67.5 6.75 9.375 6.75Z" fill="#FFFFFF" transform="matrix(1 0 0 1.22655 956 1061.9)"/><g clip-path="url(#clip64)"><path d="M12.017 8.71875 12.5508 9.18144 13.0845 9.76385 13.6182 10.4509 14.1521 11.2277 14.6858 12.0789 15.2195 12.9897 15.7533 13.9451 16.287 14.9297 16.8207 15.9288 17.3546 16.9271 17.8883 17.9098 18.422 18.8616 18.9557 19.7676 19.4895 20.6126 20.0233 21.3818 20.557 22.06 21.0908 22.6322 21.6245 23.0832 22.1582 23.398 22.6919 23.5618 23.2258 23.5685 23.7595 23.4327 24.2932 23.1715 24.827 22.8021 25.3607 22.3419 25.8944 21.8079 26.4283 21.2176 26.962 20.5879 27.4957 19.9362 28.0294 19.2797 28.5632 18.6357 29.0969 18.0212 29.6307 17.4538 30.1645 16.9503 30.6982 16.5281 31.2319 16.2044 31.7656 15.9965 32.2995 15.9216 32.8332 15.9967 33.3669 16.2392 33.9007 16.653 34.4344 17.2266 34.9681 17.947 35.502 18.8016 36.0357 19.7772 36.5694 20.8612 37.1031 22.0406 37.6368 23.3026 38.1706 24.6345 38.7044 26.0232 39.2381 27.4559 39.7719 28.9197 40.3056 30.4018 40.8393 31.8896 41.373 33.3698 41.9069 34.8298 42.4406 36.2566 42.9743 37.6376 43.5081 38.9596 44.0418 40.2104 44.5755 41.3824 45.1094 42.4721 45.6431 43.4762 46.1768 44.391 46.7105 45.2135 47.2443 45.94 47.7781 46.5672 48.3118 47.0915 48.8456 47.5099 49.3793 47.8186 49.913 48.0143 50.4467 48.0937 50.9806 48.0534 51.5143 47.8897 52.048 47.5996 52.5818 47.1793 53.1155 46.6256 53.6492 45.9352 54.1831 45.1044 54.7168 44.1316 55.2505 43.0264 55.7842 41.8038 56.318 40.4784 56.8517 39.0655 57.3855 37.5797 57.9193 36.0359 58.453 34.4493 58.9867 32.8346 59.5204 31.2066 60.0543 29.5806 60.588 27.971 61.1217 26.3931 61.6555 24.8616 62.1892 23.3914 62.7229 21.9975 63.2568 20.6949 63.7905 19.4983 64.3242 18.4227 64.8579 17.4828" stroke="#1F77B4" stroke-width="1.30208" stroke-linecap="square" stroke-linejoin="round" fill="none" transform="matrix(1 0 0 1.22655 956 1061.9)"/></g><path d="M9.375 50.0625 9.375 6.75" stroke="#000000" stroke-width="1.30208" stroke-linecap="square" fill="none" transform="matrix(1 0 0 1.22655 956 1061.9)"/><path d="M67.5 50.0625 67.5 6.75" stroke="#000000" stroke-width="1.30208" stroke-linecap="square" fill="none" transform="matrix(1 0 0 1.22655 956 1061.9)"/><path d="M9.375 50.0625 67.5 50.0625" stroke="#000000" stroke-width="1.30208" stroke-linecap="square" fill="none" transform="matrix(1 0 0 1.22655 956 1061.9)"/><path d="M9.375 6.75 67.5 6.75" stroke="#000000" stroke-width="1.30208" stroke-linecap="square" fill="none" transform="matrix(1 0 0 1.22655 956 1061.9)"/></g></g></g><g clip-path="url(#clip65)"><g clip-path="url(#clip66)"><g clip-path="url(#clip67)"><path d="M0 56.25 75 56.25 75 0 0 0Z" fill="#FFFFFF" transform="matrix(1 0 0 1.22655 956 1255.88)"/><path d="M9.375 50.0625 67.5 50.0625 67.5 6.75 9.375 6.75Z" fill="#FFFFFF" transform="matrix(1 0 0 1.22655 956 1255.88)"/><g clip-path="url(#clip68)"><path d="M12.017 15.9768 12.5508 17.5733 13.0845 19.3746 13.6182 21.3462 14.1521 23.4539 14.6858 25.6635 15.2195 27.9406 15.7533 30.251 16.287 32.5604 16.8207 34.8345 17.3546 37.0391 17.8883 39.1397 18.422 41.1023 18.9557 42.8924 19.4895 44.476 20.0233 45.8186 20.557 46.8859 21.0908 47.6437 21.6245 48.0578 22.1582 48.0937 22.6919 47.7174 23.2258 46.9171 23.7595 45.7301 24.2932 44.201 24.827 42.3741 25.3607 40.2939 25.8944 38.0046 26.4283 35.5506 26.962 32.9764 27.4957 30.3263 28.0294 27.6447 28.5632 24.9758 29.0969 22.3642 29.6307 19.8542 30.1645 17.4901 30.6982 15.3163 31.2319 13.3772 31.7656 11.7173 32.2995 10.3808 32.8332 9.41207 33.3669 8.85469 33.9007 8.71875 34.4344 8.97098 34.9681 9.57518 35.502 10.4952 36.0357 11.6948 36.5694 13.1378 37.1031 14.7881 37.6368 16.6094 38.1706 18.5656 38.7044 20.6206 39.2381 22.738 39.7719 24.8818 40.3056 27.0156 40.8393 29.1035 41.373 31.1092 41.9069 32.9965 42.4406 34.7292 42.9743 36.271 43.5081 37.5859 44.0418 38.6397 44.5755 39.4267 45.1094 39.9633 45.6431 40.2668 46.1768 40.3543 46.7105 40.2427 47.2443 39.9492 47.7781 39.4909 48.3118 38.8849 48.8456 38.1482 49.3793 37.2979 49.913 36.3513 50.4467 35.3251 50.9806 34.2368 51.5143 33.1033 52.048 31.9415 52.5818 30.7689 53.1155 29.6023 53.6492 28.4589 54.1831 27.3556 54.7168 26.3082 55.2505 25.3215 55.7842 24.3952 56.318 23.5292 56.8517 22.7232 57.3855 21.9771 57.9193 21.2908 58.453 20.6639 58.9867 20.0966 59.5204 19.5884 60.0543 19.1393 60.588 18.7491 61.1217 18.4174 61.6555 18.1444 62.1892 17.9297 62.7229 17.7732 63.2568 17.6746 63.7905 17.6339 64.3242 17.6508 64.8579 17.7251" stroke="#1F77B4" stroke-width="1.30208" stroke-linecap="square" stroke-linejoin="round" fill="none" transform="matrix(1 0 0 1.22655 956 1255.88)"/></g><path d="M9.375 50.0625 9.375 6.75" stroke="#000000" stroke-width="1.30208" stroke-linecap="square" fill="none" transform="matrix(1 0 0 1.22655 956 1255.88)"/><path d="M67.5 50.0625 67.5 6.75" stroke="#000000" stroke-width="1.30208" stroke-linecap="square" fill="none" transform="matrix(1 0 0 1.22655 956 1255.88)"/><path d="M9.375 50.0625 67.5 50.0625" stroke="#000000" stroke-width="1.30208" stroke-linecap="square" fill="none" transform="matrix(1 0 0 1.22655 956 1255.88)"/><path d="M9.375 6.75 67.5 6.75" stroke="#000000" stroke-width="1.30208" stroke-linecap="square" fill="none" transform="matrix(1 0 0 1.22655 956 1255.88)"/></g></g></g><g clip-path="url(#clip69)"><g clip-path="url(#clip70)"><g clip-path="url(#clip71)"><path d="M0 56.25 75 56.25 75 0 0 0Z" fill="#FFFFFF" transform="matrix(1 0 0 1.20878 955 1449.87)"/><path d="M9.375 50.0625 67.5 50.0625 67.5 6.75 9.375 6.75Z" fill="#FFFFFF" transform="matrix(1 0 0 1.20878 955 1449.87)"/><g clip-path="url(#clip72)"><path d="M12.017 8.71875 12.5508 9.33742 13.0845 10.0978 13.6182 10.9886 14.1521 11.9985 14.6858 13.1164 15.2195 14.3309 15.7533 15.6309 16.287 17.0049 16.8207 18.4419 17.3546 19.9305 17.8883 21.4595 18.422 23.0177 18.9557 24.5938 19.4895 26.1764 20.0233 27.7544 20.557 29.3167 21.0908 30.8517 21.6245 32.3483 22.1582 33.7953 22.6919 35.1815 23.2258 36.4986 23.7595 37.7457 24.2932 38.9225 24.827 40.0292 25.3607 41.0652 25.8944 42.0306 26.4283 42.9254 26.962 43.7492 27.4957 44.5019 28.0294 45.1836 28.5632 45.794 29.0969 46.3329 29.6307 46.8003 30.1645 47.1958 30.6982 47.5197 31.2319 47.7715 31.7656 47.9512 32.2995 48.0587 32.8332 48.0937 33.3669 48.0564 33.9007 47.9473 34.4344 47.7687 34.9681 47.5229 35.502 47.2122 36.0357 46.8387 36.5694 46.4046 37.1031 45.9122 37.6368 45.3639 38.1706 44.7617 38.7044 44.1079 39.2381 43.4048 39.7719 42.6547 40.3056 41.8596 40.8393 41.022 41.373 40.144 41.9069 39.2279 42.4406 38.2758 42.9743 37.29 43.5081 36.2728 44.0418 35.2266 44.5755 34.1552 45.1094 33.0638 45.6431 31.9577 46.1768 30.8421 46.7105 29.7221 47.2443 28.603 47.7781 27.49 48.3118 26.3883 48.8456 25.3031 49.3793 24.2396 49.913 23.203 50.4467 22.1984 50.9806 21.2314 51.5143 20.3068 52.048 19.4299 52.5818 18.606 53.1155 17.8404 53.6492 17.138 54.1831 16.5042 54.7168 15.9435 55.2505 15.4553 55.7842 15.0366 56.318 14.6842 56.8517 14.3953 57.3855 14.1671 57.9193 13.9961 58.453 13.8797 58.9867 13.8148 59.5204 13.7986 60.0543 13.8277 60.588 13.8993 61.1217 14.0105 61.6555 14.1585 62.1892 14.3397 62.7229 14.5517 63.2568 14.7911 63.7905 15.0553 64.3242 15.341 64.8579 15.6453" stroke="#1F77B4" stroke-width="1.30208" stroke-linecap="square" stroke-linejoin="round" fill="none" transform="matrix(1 0 0 1.20878 955 1449.87)"/></g><path d="M9.375 50.0625 9.375 6.75" stroke="#000000" stroke-width="1.30208" stroke-linecap="square" fill="none" transform="matrix(1 0 0 1.20878 955 1449.87)"/><path d="M67.5 50.0625 67.5 6.75" stroke="#000000" stroke-width="1.30208" stroke-linecap="square" fill="none" transform="matrix(1 0 0 1.20878 955 1449.87)"/><path d="M9.375 50.0625 67.5 50.0625" stroke="#000000" stroke-width="1.30208" stroke-linecap="square" fill="none" transform="matrix(1 0 0 1.20878 955 1449.87)"/><path d="M9.375 6.75 67.5 6.75" stroke="#000000" stroke-width="1.30208" stroke-linecap="square" fill="none" transform="matrix(1 0 0 1.20878 955 1449.87)"/></g></g></g><path d="M1157.5 1288.38C1157.5 1282.31 1161.31 1277.38 1166 1277.38 1170.69 1277.38 1174.5 1282.31 1174.5 1288.38 1174.5 1294.46 1170.69 1299.38 1166 1299.38 1161.31 1299.38 1157.5 1294.46 1157.5 1288.38Z" stroke="#000000" stroke-width="1.33333" stroke-miterlimit="8" fill-rule="evenodd"/><path d="M0 0 157.909 0.702403" stroke="#000000" stroke-width="5.99945" stroke-miterlimit="8" fill="none" fill-rule="evenodd" transform="matrix(1.00009 0 0 -1 807 1094.6)"/><path d="M0 0 157.909 0.702403" stroke="#000000" stroke-width="5.99945" stroke-miterlimit="8" fill="none" fill-rule="evenodd" transform="matrix(1.00009 0 0 -1 807 1289.58)"/><path d="M0 0 157.909 0.702403" stroke="#000000" stroke-width="5.99945" stroke-miterlimit="8" fill="none" fill-rule="evenodd" transform="matrix(1.00009 0 0 -1 807 1483.57)"/><path d="M1024 1096.9 1166.59 1289.1" stroke="#000000" stroke-width="6" stroke-miterlimit="8" fill="none" fill-rule="evenodd"/><path d="M0 0 142.898 1.05481" stroke="#000000" stroke-width="5.99945" stroke-miterlimit="8" fill="none" fill-rule="evenodd" transform="matrix(1.00009 0 0 -1 1023 1287.94)"/><path d="M0 0 142.578 192.202" stroke="#000000" stroke-width="5.99945" stroke-miterlimit="8" fill="none" fill-rule="evenodd" transform="matrix(1.00009 0 0 -1 1023 1481.08)"/><text font-family="Times New Roman,Times New Roman_MSFontService,sans-serif" font-weight="700" font-size="53" transform="matrix(1 0 0 0.999908 59.124 1674)">Z<tspan font-size="53" x="1099.96" y="2.00018">KAN(Z)</tspan></text><path d="M18.5793-26.5234C16.0779-26.2129 14.1803-25.29 12.8865-23.7547 11.5927-22.2193 10.9458-20.1578 10.9458-17.5702 10.9458-15.0343 11.6056-13.0418 12.9253-11.5927 14.245-10.1436 16.1297-9.3328 18.5793-9.16029ZM26.3941-26.7046 26.3941-9.34143C31.4831-10.066 34.0276-13.0504 34.0276-18.2947 34.0276-20.8134 33.3764-22.7929 32.074-24.2334 30.7715-25.6738 28.8782-26.4976 26.3941-26.7046ZM15.8106-35.3215 29.1887-35.3215 29.1887-33.6136C28.0157-33.3031 27.2566-32.8891 26.9116-32.3715 26.5666-31.854 26.3941-30.9656 26.3941-29.7063 31.5004-29.551 35.3732-28.5289 38.0126-26.6399 40.652-24.7509 41.9717-22.0813 41.9717-18.6311 41.9717-14.9221 40.6348-11.9981 37.9609-9.85896 35.287-7.71983 31.4314-6.54676 26.3941-6.33975 26.3941-5.09768 26.4588-4.2265 26.5881-3.72622 26.7175-3.22594 26.959-2.82054 27.3127-2.51002 27.6663-2.1995 28.2917-1.93211 29.1887-1.70785L29.1887 0 15.8106 0 15.8106-1.70785C16.6904-1.93211 17.3028-2.19519 17.6478-2.49708 17.9928-2.79898 18.23-3.18281 18.3594-3.64859 18.4888-4.11437 18.5621-4.94242 18.5793-6.13274 13.4903-6.30525 9.62176-7.33168 6.97373-9.21204 4.32569-11.0924 3.00168-13.7663 3.00168-17.2338 3.00168-20.9255 4.33001-23.8409 6.98666-25.98 9.64332-28.1192 13.5075-29.3009 18.5793-29.5251 18.5448-30.5774 18.4629-31.3235 18.3335-31.7634 18.2041-32.2033 17.9712-32.5656 17.6349-32.8503 17.2985-33.1349 16.6904-33.3894 15.8106-33.6136Z" fill-rule="evenodd" transform="matrix(1.00009 0 0 1 243.323 1698.91)"/><text fill="#000000" fill-opacity="0" font-family="Arial,Arial_MSFontService,sans-serif" font-size="35.3215" x="3.00168" y="-4.41518"></text><path d="M13.0623-26.2959 15.4996-26.2959C15.4234-25.0773 15.3853-23.389 15.3853-21.231L15.3853-5.3125C15.3853-4.57624 15.4266-4.02087 15.5091-3.64639 15.5916-3.27192 15.7376-2.96726 15.947-2.73241 16.1565-2.49757 16.458-2.31351 16.8515-2.18022 17.245-2.04693 17.7401-1.94538 18.3367-1.87556 18.9333-1.80574 19.7204-1.75814 20.6978-1.73275L20.6978 0 4.26523 0 4.26523-1.73275C5.67428-1.79622 6.68029-1.88191 7.28327-1.98981 7.88624-2.09771 8.3464-2.25956 8.66375-2.47536 8.98111-2.69116 9.21278-2.99582 9.35876-3.38934 9.50474-3.78286 9.57773-4.42391 9.57773-5.3125L9.57773-19.0793C9.57773-19.5998 9.47935-19.9742 9.28259-20.2027 9.08584-20.4312 8.81608-20.5455 8.47334-20.5455 8.15599-20.5455 7.70852-20.3995 7.13094-20.1075 6.55335-19.8156 5.60447-19.2189 4.28428-18.3177L3.12276-20.336Z" fill-rule="evenodd" transform="matrix(1.00009 0 0 1 286.797 1709.79)"/><text fill="#000000" fill-opacity="0" font-family="Arial,Arial_MSFontService,sans-serif" font-size="26.2959" x="3.12276" y="-3.28699"></text><path d="M18.5793-26.5234C16.0779-26.2129 14.1803-25.29 12.8865-23.7547 11.5927-22.2193 10.9458-20.1578 10.9458-17.5702 10.9458-15.0343 11.6056-13.0418 12.9253-11.5927 14.245-10.1436 16.1297-9.3328 18.5793-9.16029ZM26.3941-26.7046 26.3941-9.34143C31.4831-10.066 34.0276-13.0504 34.0276-18.2947 34.0276-20.8134 33.3764-22.7929 32.074-24.2334 30.7715-25.6738 28.8782-26.4976 26.3941-26.7046ZM15.8106-35.3215 29.1887-35.3215 29.1887-33.6136C28.0157-33.3031 27.2566-32.8891 26.9116-32.3715 26.5666-31.854 26.3941-30.9656 26.3941-29.7063 31.5004-29.551 35.3732-28.5289 38.0126-26.6399 40.652-24.7509 41.9717-22.0813 41.9717-18.6311 41.9717-14.9221 40.6348-11.9981 37.9609-9.85896 35.287-7.71983 31.4314-6.54676 26.3941-6.33975 26.3941-5.09768 26.4588-4.2265 26.5881-3.72622 26.7175-3.22594 26.959-2.82054 27.3127-2.51002 27.6663-2.1995 28.2917-1.93211 29.1887-1.70785L29.1887 0 15.8106 0 15.8106-1.70785C16.6904-1.93211 17.3028-2.19519 17.6478-2.49708 17.9928-2.79898 18.23-3.18281 18.3594-3.64859 18.4888-4.11437 18.5621-4.94242 18.5793-6.13274 13.4903-6.30525 9.62176-7.33168 6.97373-9.21204 4.32569-11.0924 3.00168-13.7663 3.00168-17.2338 3.00168-20.9255 4.33001-23.8409 6.98666-25.98 9.64332-28.1192 13.5075-29.3009 18.5793-29.5251 18.5448-30.5774 18.4629-31.3235 18.3335-31.7634 18.2041-32.2033 17.9712-32.5656 17.6349-32.8503 17.2985-33.1349 16.6904-33.3894 15.8106-33.6136Z" fill-rule="evenodd" transform="matrix(1.00009 0 0 1 617.177 1698.91)"/><text fill="#000000" fill-opacity="0" font-family="Arial,Arial_MSFontService,sans-serif" font-size="35.3215" x="3.00168" y="-4.41518"></text><path d="M11.5771-26.2959C13.4431-26.2959 14.9664-26.0452 16.147-25.5438 17.3275-25.0424 18.1812-24.3632 18.708-23.5064 19.2348-22.6495 19.4982-21.6499 19.4982-20.5074 19.4982-19.5046 19.311-18.5715 18.9365-17.7083 18.562-16.8451 17.9146-15.8613 16.9943-14.7569 16.074-13.6526 14.5221-12.0721 12.3387-10.0157 11.6659-9.38097 10.863-8.54633 9.93-7.51176 8.99698-6.47719 8.25754-5.59177 7.71169-4.85551L7.71169-4.6651 14.4713-4.6651C15.2964-4.6651 15.9121-4.7254 16.3183-4.84599 16.7245-4.96658 17.0451-5.17604 17.2799-5.47435 17.5147-5.77266 17.7083-6.22013 17.8607-6.81676L20.0504-6.81676 19.6125 0 2.1707 0 2.1707-1.25672C3.14815-3.50358 5.14748-6.39785 8.16868-9.93952 9.53965-11.5517 10.5837-12.8782 11.301-13.9191 12.0182-14.9601 12.5545-15.9438 12.9099-16.8705 13.2654-17.7972 13.4431-18.7556 13.4431-19.7457 13.4431-21.1421 13.1321-22.237 12.5101-23.0304 11.8881-23.8237 11.0376-24.2204 9.95856-24.2204 7.88941-24.2204 6.56287-22.7289 5.97894-19.7457L2.55152-19.7457 2.55152-24.2395C4.62067-25.0773 6.28995-25.6295 7.55936-25.8961 8.82878-26.1626 10.168-26.2959 11.5771-26.2959Z" fill-rule="evenodd" transform="matrix(1.00009 0 0 1 660.65 1709.79)"/><text fill="#000000" fill-opacity="0" font-family="Arial,Arial_MSFontService,sans-serif" font-size="26.2959" x="2.1707" y="-3.28699"></text><path d="M18.5793-26.5234C16.0779-26.2129 14.1803-25.29 12.8865-23.7547 11.5927-22.2193 10.9458-20.1578 10.9458-17.5702 10.9458-15.0343 11.6056-13.0418 12.9253-11.5927 14.245-10.1436 16.1297-9.3328 18.5793-9.16029ZM26.3941-26.7046 26.3941-9.34143C31.4831-10.066 34.0276-13.0504 34.0276-18.2947 34.0276-20.8134 33.3764-22.7929 32.074-24.2334 30.7715-25.6738 28.8782-26.4976 26.3941-26.7046ZM15.8106-35.3215 29.1887-35.3215 29.1887-33.6136C28.0157-33.3031 27.2566-32.8891 26.9116-32.3715 26.5666-31.854 26.3941-30.9656 26.3941-29.7063 31.5004-29.551 35.3732-28.5289 38.0126-26.6399 40.652-24.7509 41.9717-22.0813 41.9717-18.6311 41.9717-14.9221 40.6348-11.9981 37.9609-9.85896 35.287-7.71983 31.4314-6.54676 26.3941-6.33975 26.3941-5.09768 26.4588-4.2265 26.5881-3.72622 26.7175-3.22594 26.959-2.82054 27.3127-2.51002 27.6663-2.1995 28.2917-1.93211 29.1887-1.70785L29.1887 0 15.8106 0 15.8106-1.70785C16.6904-1.93211 17.3028-2.19519 17.6478-2.49708 17.9928-2.79898 18.23-3.18281 18.3594-3.64859 18.4888-4.11437 18.5621-4.94242 18.5793-6.13274 13.4903-6.30525 9.62176-7.33168 6.97373-9.21204 4.32569-11.0924 3.00168-13.7663 3.00168-17.2338 3.00168-20.9255 4.33001-23.8409 6.98666-25.98 9.64332-28.1192 13.5075-29.3009 18.5793-29.5251 18.5448-30.5774 18.4629-31.3235 18.3335-31.7634 18.2041-32.2033 17.9712-32.5656 17.6349-32.8503 17.2985-33.1349 16.6904-33.3894 15.8106-33.6136Z" fill-rule="evenodd" transform="matrix(1.00009 0 0 1 988.748 1698.91)"/><text fill="#000000" fill-opacity="0" font-family="Arial,Arial_MSFontService,sans-serif" font-size="35.3215" x="3.00168" y="-4.41518"></text><path d="M11.6342-26.2959C14.0334-26.2959 15.9502-25.8072 17.3846-24.8298 18.8191-23.8523 19.5363-22.4877 19.5363-20.7359 19.5363-19.2634 19.1142-17.994 18.2701-16.9276 17.4259-15.8613 16.0137-14.8712 14.0334-13.9572L14.0334-13.7858C15.8867-13.4431 17.3497-12.7005 18.4224-11.558 19.495-10.4155 20.0314-9.00015 20.0314-7.31183 20.0314-5.83931 19.6728-4.52864 18.9555-3.37982 18.2383-2.231 17.1498-1.32971 15.69-0.675963 14.2301-0.0222147 12.4593 0.304659 10.3775 0.304659 8.94303 0.304659 7.53398 0.174545 6.15031-0.0856854 4.76665-0.345915 3.56071-0.710872 2.53248-1.18056L2.53248-5.9599 5.9599-5.9599C6.32803-4.51277 6.84849-3.46233 7.52128-2.80858 8.19407-2.15483 9.07631-1.82796 10.168-1.82796 12.8592-1.82796 14.2048-3.49089 14.2048-6.81676 14.2048-8.60663 13.7319-9.93952 12.7862-10.8154 11.8405-11.6913 10.4029-12.1293 8.47334-12.1293L6.96909-12.1293 6.96909-14.3C9.17787-14.3888 10.8535-14.9061 11.996-15.8518 13.1384-16.7975 13.7097-18.1653 13.7097-19.9552 13.7097-21.3642 13.4241-22.4274 12.8528-23.1446 12.2816-23.8618 11.4501-24.2204 10.3584-24.2204 9.29212-24.2204 8.41622-23.8396 7.73074-23.078 7.04525-22.3163 6.57557-21.1992 6.32169-19.7267L2.89427-19.7267 2.89427-24.2395C6.10589-25.6104 9.01919-26.2959 11.6342-26.2959Z" fill-rule="evenodd" transform="matrix(1.00009 0 0 1 1032.22 1709.79)"/><text fill="#000000" fill-opacity="0" font-family="Arial,Arial_MSFontService,sans-serif" font-size="26.6006" x="2.53248" y="-3.02041"></text><path d="M1390 1072.73C1390 1014.29 1437.38 966.911 1495.83 966.911L1919.15 966.911C1977.6 966.911 2024.98 1014.29 2024.98 1072.73L2024.98 1660.01C2024.98 1718.46 1977.6 1765.84 1919.15 1765.84L1495.83 1765.84C1437.38 1765.84 1390 1718.46 1390 1660.01Z" stroke="#000000" stroke-width="6" stroke-miterlimit="8" stroke-dasharray="24 18" fill="#E2F0D9" fill-rule="evenodd"/><rect x="1488" y="1318.88" width="100" height="87.9919" stroke="#FFD966" stroke-width="3.66667" stroke-miterlimit="8" fill="#FFF2CC"/><rect x="1490.5" y="1452.37" width="100" height="78.9928" stroke="#000000" stroke-width="1.33333" stroke-miterlimit="8" fill="none"/><path d="M18.5793-26.5234C16.0779-26.2129 14.1803-25.29 12.8865-23.7547 11.5927-22.2193 10.9458-20.1578 10.9458-17.5702 10.9458-15.0343 11.6056-13.0418 12.9253-11.5927 14.245-10.1436 16.1297-9.3328 18.5793-9.16029ZM26.3941-26.7046 26.3941-9.34143C31.4831-10.066 34.0276-13.0504 34.0276-18.2947 34.0276-20.8134 33.3764-22.7929 32.074-24.2334 30.7715-25.6738 28.8782-26.4976 26.3941-26.7046ZM15.8106-35.3215 29.1887-35.3215 29.1887-33.6136C28.0157-33.3031 27.2566-32.8891 26.9116-32.3715 26.5666-31.854 26.3941-30.9656 26.3941-29.7063 31.5004-29.551 35.3732-28.5289 38.0126-26.6399 40.652-24.7509 41.9717-22.0813 41.9717-18.6311 41.9717-14.9221 40.6348-11.9981 37.9609-9.85896 35.287-7.71983 31.4314-6.54676 26.3941-6.33975 26.3941-5.09768 26.4588-4.2265 26.5881-3.72622 26.7175-3.22594 26.959-2.82054 27.3127-2.51002 27.6663-2.1995 28.2917-1.93211 29.1887-1.70785L29.1887 0 15.8106 0 15.8106-1.70785C16.6904-1.93211 17.3028-2.19519 17.6478-2.49708 17.9928-2.79898 18.23-3.18281 18.3594-3.64859 18.4888-4.11437 18.5621-4.94242 18.5793-6.13274 13.4903-6.30525 9.62176-7.33168 6.97373-9.21204 4.32569-11.0924 3.00168-13.7663 3.00168-17.2338 3.00168-20.9255 4.33001-23.8409 6.98666-25.98 9.64332-28.1192 13.5075-29.3009 18.5793-29.5251 18.5448-30.5774 18.4629-31.3235 18.3335-31.7634 18.2041-32.2033 17.9712-32.5656 17.6349-32.8503 17.2985-33.1349 16.6904-33.3894 15.8106-33.6136Z" fill-rule="evenodd" transform="matrix(1.00009 0 0 1 1505.45 1511.12)"/><text fill="#000000" fill-opacity="0" font-family="Arial,Arial_MSFontService,sans-serif" font-size="35.3215" x="3.00168" y="-4.41518"></text><path d="M6.68347-27.705 8.07348-27.705 8.07348-11.1772 8.53047-11.1772C8.78435-11.1772 9.00332-11.1867 9.18739-11.2058 9.37145-11.2248 9.56504-11.2534 9.76815-11.2914 9.89509-11.3168 10.1077-11.4184 10.406-11.5961 10.7043-11.7738 11.0376-12.0055 11.4057-12.2911 11.7738-12.5767 12.1546-12.8941 12.5482-13.2432 12.9417-13.5923 13.3003-13.954 13.624-14.3285 13.9477-14.703 14.2143-15.0711 14.4237-15.4329 14.6332-15.7947 14.7379-16.1216 14.7379-16.4135 14.7379-17.2006 14.1984-17.6703 13.1194-17.8226L13.1194-19.0412 22.183-19.0412 22.183-17.8226C21.5102-17.721 20.8025-17.4386 20.0599-16.9752 19.3173-16.5119 18.562-15.9502 17.794-15.2901 17.026-14.63 16.2612-13.9287 15.4996-13.186 14.7379-12.4434 13.9953-11.7484 13.2717-11.101 14.2492-9.90778 15.2171-8.71136 16.1755-7.51176 17.1339-6.31216 18.0955-5.0967 19.0603-3.86537 19.3776-3.45915 19.6728-3.11324 19.9457-2.82762 20.2186-2.542 20.4979-2.29447 20.7835-2.08501 21.0691-1.87556 21.3706-1.70419 21.6879-1.5709 22.0053-1.43761 22.3671-1.32019 22.7733-1.21864L22.7733 0 16.185 0C16.185-0.203106 16.1882-0.383998 16.1946-0.542675 16.2009-0.701351 16.1977-0.847334 16.185-0.980623 16.1723-1.11391 16.147-1.24403 16.1089-1.37097 16.0708-1.49791 16.0137-1.6312 15.9375-1.77083 15.709-2.13896 15.4678-2.51661 15.2139-2.90379 14.9601-3.29096 14.6522-3.73208 14.2904-4.22715 13.9287-4.72222 13.5034-5.29346 13.0147-5.94086 12.5259-6.58826 11.9325-7.34991 11.2343-8.22581 10.9677-8.54316 10.7488-8.7907 10.5774-8.96841 10.406-9.14613 10.2473-9.27625 10.1014-9.35876 9.95538-9.44127 9.79671-9.49205 9.62534-9.51109 9.45397-9.53013 9.22864-9.546 8.94937-9.55869L8.07348-9.55869 8.07348-4.85551C8.07348-4.09386 8.08934-3.50993 8.12108-3.10372 8.15282-2.69751 8.24485-2.38333 8.39718-2.16118 8.54951-1.93903 8.778-1.77083 9.08266-1.65659 9.38732-1.54234 9.81258-1.39636 10.3584-1.21864L10.3584 0 1.96125 0 1.96125-1.21864C2.55787-1.39636 3.01803-1.54869 3.34173-1.67563 3.66544-1.80257 3.90028-1.98029 4.04626-2.20878 4.19224-2.43728 4.27475-2.75146 4.2938-3.15132 4.31284-3.55119 4.32236-4.11925 4.32236-4.85551L4.32236-21.0215C4.32236-22.037 4.32236-22.8526 4.32236-23.4683 4.32236-24.084 4.24619-24.5727 4.09386-24.9345 3.94153-25.2963 3.67813-25.566 3.30365-25.7437 2.92917-25.9214 2.36746-26.0674 1.6185-26.1817L1.6185-27.4384Z" fill-rule="evenodd" transform="matrix(1.00009 0 0 1 1550.61 1522.01)"/><text fill="#000000" fill-opacity="0" font-family="Arial,Arial_MSFontService,sans-serif" font-size="27.705" x="1.6185" y="-3.46312">k</text><path d="M1515.5 1258.38C1515.5 1246.24 1525.8 1236.39 1538.5 1236.39 1551.2 1236.39 1561.5 1246.24 1561.5 1258.38 1561.5 1270.53 1551.2 1280.38 1538.5 1280.38 1525.8 1280.38 1515.5 1270.53 1515.5 1258.38Z" stroke="#000000" stroke-width="3" stroke-miterlimit="8" fill="none" fill-rule="evenodd"/><path d="M1524.5 1258.88C1524.5 1251.98 1530.54 1246.39 1538 1246.39 1545.46 1246.39 1551.5 1251.98 1551.5 1258.88 1551.5 1265.79 1545.46 1271.38 1538 1271.38 1530.54 1271.38 1524.5 1265.79 1524.5 1258.88Z" stroke="#000000" stroke-width="3" stroke-miterlimit="8" fill="none" fill-rule="evenodd"/><path d="M1513.5 1157.39C1513.5 1141.93 1525.59 1129.4 1540.5 1129.4 1555.41 1129.4 1567.5 1141.93 1567.5 1157.39 1567.5 1172.86 1555.41 1185.39 1540.5 1185.39 1525.59 1185.39 1513.5 1172.86 1513.5 1157.39Z" stroke="#000000" stroke-width="3" stroke-miterlimit="8" fill="none" fill-rule="evenodd"/><path d="M1540.5 1129.4 1540.5 1185.49" stroke="#000000" stroke-width="3" stroke-miterlimit="8" fill="none" fill-rule="evenodd"/><path d="M1513.5 1157.39 1567.42 1157.39" stroke="#000000" stroke-width="3" stroke-miterlimit="8" fill="none" fill-rule="evenodd"/><text font-family="Times New Roman,Times New Roman_MSFontService,sans-serif" font-weight="400" font-size="37" transform="matrix(1 0 0 0.999908 1622.33 1167)">ADD<tspan font-size="37" x="0" y="115.011">CONCAT</tspan><tspan font-size="37" x="0" y="214.02">Convolution Block</tspan><tspan font-size="37" x="0" y="318.029">Nonlinear </tspan><tspan font-size="37" x="0" y="362.033">Learnable Params</tspan></text><path d="M0.121672-2.99726 47.1187-1.08943 46.8753 4.90508-0.121672 2.99726ZM44.6081-13.2001 73.9723 3.00287 43.3914 16.7724Z" transform="matrix(1.00009 0 0 -1 1492 1595.86)"/><text font-family="Times New Roman,Times New Roman_MSFontService,sans-serif" font-weight="400" font-size="37" transform="matrix(1 0 0 0.999908 1619.58 1607)">Skip Connection</text><rect x="716" y="505.954" width="162" height="87.9919" stroke="#FFD966" stroke-width="3.66667" stroke-miterlimit="8" fill="#FFF2CC"/><text font-family="Times New Roman,Times New Roman_MSFontService,sans-serif" font-weight="700" font-size="37" transform="matrix(1 0 0 0.999908 754.073 541)">Conv<tspan font-size="37" x="-21.9133" y="45.0041">Sober X</tspan></text><path d="M611 546.95 689.036 546.95 689.036 552.949 611 552.949ZM686.036 534.951 716.036 549.95 686.036 564.948Z"/><rect x="716" y="764.93" width="162" height="87.9919" stroke="#FFD966" stroke-width="3.66667" stroke-miterlimit="8" fill="#FFF2CC"/><text font-family="Times New Roman,Times New Roman_MSFontService,sans-serif" font-weight="700" font-size="37" transform="matrix(1 0 0 0.999908 754.073 800)">Conv<tspan font-size="37" x="-21.22" y="45.0041">Sober Y</tspan></text><path d="M615 805.926 689.036 805.926 689.036 811.925 615 811.925ZM686.036 793.927 716.036 808.926 686.036 823.924Z"/><path d="M615 549.949 615 809.241" stroke="#000000" stroke-width="6" stroke-miterlimit="8" fill="none" fill-rule="evenodd"/><path d="M344 676.938 614.984 677.984" stroke="#000000" stroke-width="6" stroke-miterlimit="8" fill="none" fill-rule="evenodd"/><path d="M878 549.949 971.037 549.95" stroke="#000000" stroke-width="6" stroke-miterlimit="8" fill="none" fill-rule="evenodd"/><path d="M878 808.926 971.037 808.926" stroke="#000000" stroke-width="6" stroke-miterlimit="8" fill="none" fill-rule="evenodd"/><path d="M971 699.936 971 809.569" stroke="#000000" stroke-width="6" stroke-miterlimit="8" fill="none" fill-rule="evenodd"/><path d="M971 548.95 971 655.839" stroke="#000000" stroke-width="6" stroke-miterlimit="8" fill="none" fill-rule="evenodd"/><path d="M948.5 677.938C948.5 665.513 958.797 655.44 971.5 655.44 984.203 655.44 994.5 665.513 994.5 677.938 994.5 690.363 984.203 700.436 971.5 700.436 958.797 700.436 948.5 690.363 948.5 677.938Z" stroke="#000000" stroke-width="3" stroke-miterlimit="8" fill="none" fill-rule="evenodd"/><path d="M957.5 677.938C957.5 671.035 963.544 665.439 971 665.439 978.456 665.439 984.5 671.035 984.5 677.938 984.5 684.841 978.456 690.437 971 690.437 963.544 690.437 957.5 684.841 957.5 677.938Z" stroke="#000000" stroke-width="3" stroke-miterlimit="8" fill="none" fill-rule="evenodd"/><rect x="1067" y="569.948" width="144" height="216.98" stroke="#FFD966" stroke-width="3.66667" stroke-miterlimit="8" fill="#FFF2CC"/><text font-family="Times New Roman,Times New Roman_MSFontService,sans-serif" font-weight="700" font-size="37" transform="matrix(1 0 0 0.999908 1101.07 670)">Conv<tspan font-size="37" x="-17.08" y="44.004">2C    C</tspan></text><path d="M1002 675.938 1051.8 675.938 1051.8 681.937 1002 681.937ZM1048.8 669.939 1066.8 678.938 1048.8 687.937Z"/><rect x="1211.5" y="570.448" width="96" height="216.98" stroke="#A5A5A5" stroke-width="3" stroke-miterlimit="8" fill="url(#fill73)"/><text font-family="Times New Roman,Times New Roman_MSFontService,sans-serif" font-weight="700" font-size="37" transform="matrix(1 0 0 0.999908 1237.8 691)">BN</text><path d="M1135 697.936 1153 697.936 1153 701.936 1135 701.935ZM1151 693.936 1163 699.936 1151 705.935Z"/><rect x="160.5" y="246.477" width="388" height="63.9941" stroke="#2F528F" stroke-width="1.33333" stroke-miterlimit="8" fill="#BDD7EE"/><path d="M8.25461-35.3215 31.5952-35.3215 29.8098-27.3774 27.3256-27.3774C27.2566-28.7057 27.1488-29.7537 27.0022-30.5214 26.8555-31.289 26.6485-31.8411 26.3811-32.1775 26.1137-32.5139 25.7903-32.7424 25.4108-32.8632 25.0312-32.9839 24.4619-33.0443 23.7029-33.0443L15.7329-33.0443 12.6536-18.9675 17.4925-18.9675C18.2516-18.9675 18.8812-19.071 19.3815-19.278 19.8818-19.485 20.3476-19.8602 20.7789-20.4036 21.2101-20.9471 21.7449-21.8743 22.3832-23.1854L24.738-23.1854 22.2279-12.2655 19.9508-12.2655C19.9508-14.0078 19.8947-15.099 19.7826-15.5389 19.6705-15.9788 19.4548-16.2807 19.1357-16.4445 18.8166-16.6084 18.1826-16.6904 17.2338-16.6904L12.162-16.6904 10.1177-7.53007C9.75545-5.90847 9.57432-4.56289 9.57432-3.49333 9.57432-2.95855 9.66057-2.54021 9.83308-2.23832 10.0056-1.93643 10.2644-1.71648 10.6094-1.57847 10.9544-1.44046 11.5496-1.33695 12.3949-1.26795L12.1102 0 1.47496 0 1.7596-1.26795C2.41514-1.37146 2.9068-1.53965 3.23457-1.77254 3.56234-2.00543 3.83835-2.32889 4.06262-2.74291 4.28688-3.15694 4.49389-3.66153 4.68365-4.25669 4.87341-4.85185 5.15805-6.00335 5.53758-7.71121L9.93659-27.6361C10.3161-29.3612 10.5059-30.7241 10.5059-31.7246 10.5059-32.5699 10.3075-33.1565 9.91071-33.4842 9.51394-33.812 8.86702-34.0018 7.96997-34.0535Z" fill-rule="evenodd" transform="matrix(1.00009 0 0 1 321.306 296.92)"/><text fill="#000000" fill-opacity="0" font-family="Arial,Arial_MSFontService,sans-serif" font-size="35.3215" x="1.47496" y="-4.41518"></text><path d="M6.68347-27.705 8.07348-27.705 8.07348-11.1772 8.53047-11.1772C8.78435-11.1772 9.00332-11.1867 9.18739-11.2058 9.37145-11.2248 9.56504-11.2534 9.76815-11.2914 9.89509-11.3168 10.1077-11.4184 10.406-11.5961 10.7043-11.7738 11.0376-12.0055 11.4057-12.2911 11.7738-12.5767 12.1546-12.8941 12.5482-13.2432 12.9417-13.5923 13.3003-13.954 13.624-14.3285 13.9477-14.703 14.2143-15.0711 14.4237-15.4329 14.6332-15.7947 14.7379-16.1216 14.7379-16.4135 14.7379-17.2006 14.1984-17.6703 13.1194-17.8226L13.1194-19.0412 22.183-19.0412 22.183-17.8226C21.5102-17.721 20.8025-17.4386 20.0599-16.9752 19.3173-16.5119 18.562-15.9502 17.794-15.2901 17.026-14.63 16.2612-13.9287 15.4996-13.186 14.7379-12.4434 13.9953-11.7484 13.2717-11.101 14.2492-9.90778 15.2171-8.71136 16.1755-7.51176 17.1339-6.31216 18.0955-5.0967 19.0603-3.86537 19.3776-3.45915 19.6728-3.11324 19.9457-2.82762 20.2186-2.542 20.4979-2.29447 20.7835-2.08501 21.0691-1.87556 21.3706-1.70419 21.6879-1.5709 22.0053-1.43761 22.3671-1.32019 22.7733-1.21864L22.7733 0 16.185 0C16.185-0.203106 16.1882-0.383998 16.1946-0.542675 16.2009-0.701351 16.1977-0.847334 16.185-0.980623 16.1723-1.11391 16.147-1.24403 16.1089-1.37097 16.0708-1.49791 16.0137-1.6312 15.9375-1.77083 15.709-2.13896 15.4678-2.51661 15.2139-2.90379 14.9601-3.29096 14.6522-3.73208 14.2904-4.22715 13.9287-4.72222 13.5034-5.29346 13.0147-5.94086 12.5259-6.58826 11.9325-7.34991 11.2343-8.22581 10.9677-8.54316 10.7488-8.7907 10.5774-8.96841 10.406-9.14613 10.2473-9.27625 10.1014-9.35876 9.95538-9.44127 9.79671-9.49205 9.62534-9.51109 9.45397-9.53013 9.22864-9.546 8.94937-9.55869L8.07348-9.55869 8.07348-4.85551C8.07348-4.09386 8.08934-3.50993 8.12108-3.10372 8.15282-2.69751 8.24485-2.38333 8.39718-2.16118 8.54951-1.93903 8.778-1.77083 9.08266-1.65659 9.38732-1.54234 9.81258-1.39636 10.3584-1.21864L10.3584 0 1.96125 0 1.96125-1.21864C2.55787-1.39636 3.01803-1.54869 3.34173-1.67563 3.66544-1.80257 3.90028-1.98029 4.04626-2.20878 4.19224-2.43728 4.27475-2.75146 4.2938-3.15132 4.31284-3.55119 4.32236-4.11925 4.32236-4.85551L4.32236-21.0215C4.32236-22.037 4.32236-22.8526 4.32236-23.4683 4.32236-24.084 4.24619-24.5727 4.09386-24.9345 3.94153-25.2963 3.67813-25.566 3.30365-25.7437 2.92917-25.9214 2.36746-26.0674 1.6185-26.1817L1.6185-27.4384Z" fill-rule="evenodd" transform="matrix(1.00009 0 0 1 347.973 307.805)"/><text fill="#000000" fill-opacity="0" font-family="Arial,Arial_MSFontService,sans-serif" font-size="27.705" x="1.6185" y="-3.46312">k</text><path d="M0.000101549-2.99972 165.265-2.99413 165.264 3.00532-0.000101549 2.99972ZM162.265-14.9931 192.262 0.00650859 162.264 15.0041Z" transform="matrix(1.00009 0 0 -1 548 277.981)"/><path d="M746.5 278.974C746.5 261.027 761.946 246.477 781 246.477 800.054 246.477 815.5 261.027 815.5 278.974 815.5 296.922 800.054 311.471 781 311.471 761.946 311.471 746.5 296.922 746.5 278.974Z" stroke="#000000" stroke-width="3" stroke-miterlimit="8" fill="none" fill-rule="evenodd"/><path d="M781.5 246.477 781.5 311.152" stroke="#000000" stroke-width="3" stroke-miterlimit="8" fill="none" fill-rule="evenodd"/><path d="M746.5 278.474 815.909 278.475" stroke="#000000" stroke-width="3" stroke-miterlimit="8" fill="none" fill-rule="evenodd"/><path d="M4.5774e-06-2.99972 53.7965-2.99964 53.7965 2.99981-4.5774e-06 2.99972ZM50.7968-8.99909 68.7952 0.000104977 50.7968 8.99925Z" transform="matrix(1.00009 0 0 -1 817 277.975)"/><path d="M886.5 148.32C886.5 140.128 893.141 133.488 901.334 133.488L960.666 133.488C968.859 133.488 975.5 140.128 975.5 148.32L975.5 408.629C975.5 416.82 968.859 423.461 960.666 423.461L901.334 423.461C893.141 423.461 886.5 416.82 886.5 408.629Z" stroke="#000000" stroke-width="3" stroke-miterlimit="8" fill="#FBE5D6" fill-rule="evenodd"/><text font-family="Times New Roman,Times New Roman_MSFontService,sans-serif" font-weight="700" font-size="37" transform="matrix(6.12323e-17 0.999816 -1.00009 6.12267e-17 917.854 175)">Tokenization</text><path d="M4.5774e-06-2.99972 53.7965-2.99964 53.7965 2.99981-4.5774e-06 2.99972ZM50.7968-8.99909 68.7952 0.000104977 50.7968 8.99925Z" transform="matrix(1.00009 0 0 -1 975 277.975)"/><path d="M1044.5 148.153C1044.5 140.054 1051.07 133.488 1059.17 133.488L1117.83 133.488C1125.93 133.488 1132.5 140.054 1132.5 148.153L1132.5 408.796C1132.5 416.895 1125.93 423.461 1117.83 423.461L1059.17 423.461C1051.07 423.461 1044.5 416.895 1044.5 408.796Z" stroke="#000000" stroke-width="3" stroke-miterlimit="8" fill="#DEEBF7" fill-rule="evenodd"/><text font-family="Times New Roman,Times New Roman_MSFontService,sans-serif" font-weight="700" font-size="37" transform="matrix(6.12323e-17 0.999816 -1.00009 6.12267e-17 1075.25 189)">KANLayer</text><path d="M4.5774e-06-2.99972 53.7965-2.99964 53.7965 2.99981-4.5774e-06 2.99972ZM50.7968-8.99909 68.7952 0.000104977 50.7968 8.99925Z" transform="matrix(1.00009 0 0 -1 1131 277.975)"/><path d="M1200.5 148.32C1200.5 140.128 1207.14 133.488 1215.33 133.488L1274.67 133.488C1282.86 133.488 1289.5 140.128 1289.5 148.32L1289.5 408.629C1289.5 416.82 1282.86 423.461 1274.67 423.461L1215.33 423.461C1207.14 423.461 1200.5 416.82 1200.5 408.629Z" stroke="#000000" stroke-width="3" stroke-miterlimit="8" fill="#F4E2EE" fill-rule="evenodd"/><text font-family="Times New Roman,Times New Roman_MSFontService,sans-serif" font-weight="700" font-size="37" transform="matrix(6.12323e-17 0.999816 -1.00009 6.12267e-17 1231.78 208)">DwConv</text><path d="M0.0221933-2.99964 13.0751-2.90307 13.0307 3.09622-0.0221933 2.99964ZM10.1198-8.92455 28.0511 0.20754 9.98664 9.07331Z" transform="matrix(1.00009 0 0 -1 1390 278.182)"/><path d="M1420.5 148.32C1420.5 140.128 1427.14 133.488 1435.33 133.488L1494.67 133.488C1502.86 133.488 1509.5 140.128 1509.5 148.32L1509.5 408.629C1509.5 416.82 1502.86 423.461 1494.67 423.461L1435.33 423.461C1427.14 423.461 1420.5 416.82 1420.5 408.629Z" stroke="#000000" stroke-width="3" stroke-miterlimit="8" fill="#FFF2CC" fill-rule="evenodd"/><text font-family="Times New Roman,Times New Roman_MSFontService,sans-serif" font-weight="700" font-size="37" transform="matrix(6.12323e-17 0.999816 -1.00009 6.12267e-17 1451.76 184)">LayerNorm</text><path d="M644 75.993 644 278.141" stroke="#000000" stroke-width="6" stroke-miterlimit="8" fill="none" fill-rule="evenodd"/><path d="M644 75.993 1353.69 75.9931" stroke="#000000" stroke-width="6" stroke-miterlimit="8" fill="none" fill-rule="evenodd"/><path d="M1319.5 277.975C1319.5 260.027 1334.95 245.477 1354 245.477 1373.05 245.477 1388.5 260.027 1388.5 277.975 1388.5 295.922 1373.05 310.472 1354 310.472 1334.95 310.472 1319.5 295.922 1319.5 277.975Z" stroke="#000000" stroke-width="3" stroke-miterlimit="8" fill="none" fill-rule="evenodd"/><path d="M1354.5 245.477 1354.5 310.152" stroke="#000000" stroke-width="3" stroke-miterlimit="8" fill="none" fill-rule="evenodd"/><path d="M1319.5 278.474 1388.91 278.475" stroke="#000000" stroke-width="3" stroke-miterlimit="8" fill="none" fill-rule="evenodd"/><path d="M1355 75.9682 1356.28 230.573 1350.28 230.623 1349 76.0178ZM1362.25 227.524 1353.4 245.596 1344.25 227.673Z"/><path d="M1289 274.975 1304.1 274.975 1304.1 280.974 1289 280.974ZM1301.1 268.975 1319.1 277.975 1301.1 286.974Z"/><path d="M2.99972-0.00134512 3.04116 92.3964-2.95829 92.3991-2.99972 0.00134512ZM15.0387 89.3913 0.0535384 119.395-14.9585 89.4047Z" transform="matrix(1.00009 0 0 -1 782 436.366)"/><path d="M1258 497.954 1258 568.965" stroke="#000000" stroke-width="6" stroke-miterlimit="8" fill="none" fill-rule="evenodd"/><path d="M817 468.957 1208.49 468.957" stroke="#000000" stroke-width="6" stroke-miterlimit="8" fill="none" fill-rule="evenodd"/><path d="M1208.5 468.957C1235.84 468.957 1258 483.283 1258 500.954" stroke="#000000" stroke-width="6" stroke-miterlimit="8" fill="none" fill-rule="evenodd"/><path d="M818 468.957C798.118 468.957 782 453.288 782 433.96" stroke="#000000" stroke-width="6" stroke-miterlimit="8" fill="none" fill-rule="evenodd"/><path d="M3.26117e-06-2.99972 81.5627-2.99964 81.5627 2.99981-3.26117e-06 2.99972ZM78.563-8.99909 96.5613 0.000104977 78.563 8.99926Z" transform="matrix(1.00009 0 0 -1 1506 277.975)"/><rect x="1603.5" y="246.477" width="398" height="63.9941" stroke="#2F528F" stroke-width="1.33333" stroke-miterlimit="8" fill="#F8CBAD"/><path d="M8.59101-35.3215 33.0702-35.3215 31.233-26.9892 27.9208-26.9892C27.8345-28.6281 27.6793-29.7753 27.455-30.4308 27.2307-31.0863 26.8857-31.5607 26.4199-31.854 25.9542-32.1473 25.2986-32.2939 24.4533-32.2939L18.6052-32.2939 15.7588-19.3556 19.2263-19.3556C20.2441-19.3556 21.0678-19.6834 21.6975-20.339 22.3271-20.9945 22.9611-22.0554 23.5994-23.5218L26.4458-23.5218 23.7288-11.9808 21.0635-11.9808C21.0635-13.1884 20.9988-14.0855 20.8694-14.672 20.74-15.2585 20.5115-15.6812 20.1837-15.9399 19.8559-16.1987 19.347-16.3281 18.657-16.3281L15.1119-16.3281 13.0418-6.98666C12.921-6.43463 12.8348-5.95591 12.783-5.55052 12.7313-5.14512 12.7054-4.61465 12.7054-3.95911 12.7054-3.16556 12.9081-2.6049 13.3135-2.27713 13.7189-1.94937 14.3528-1.7596 15.2154-1.70785L14.8531 0 1.47496 0 1.83723-1.70785C2.82054-1.98387 3.54508-2.4669 4.01086-3.15694 4.47664-3.84698 4.91654-5.12355 5.33057-6.98666L10.0401-28.3348C10.2644-29.3526 10.3765-30.3618 10.3765-31.3624 10.3765-32.0869 10.2083-32.6174 9.8719-32.9538 9.5355-33.2902 8.98778-33.5101 8.22874-33.6136Z" fill-rule="evenodd" transform="matrix(1.00009 0 0 1 1765.63 296.92)"/><text fill="#000000" fill-opacity="0" font-family="Arial,Arial_MSFontService,sans-serif" font-size="35.3215" x="1.47496" y="-4.41518"></text><path d="M12.8528-17.2133C11.7865-17.2133 10.863-16.696 10.0823-15.6614 9.30164-14.6268 8.62885-13.0274 8.06396-10.863 7.49907-8.69866 7.21662-6.8231 7.21662-5.23634 7.21662-4.04309 7.41021-3.15132 7.79738-2.56104 8.18455-1.97077 8.79704-1.67563 9.63486-1.67563 10.7139-1.67563 11.6501-2.19926 12.4434-3.24653 13.2368-4.2938 13.9001-5.87739 14.4332-7.99731 14.9664-10.1172 15.233-11.9579 15.233-13.5193 15.233-14.7887 15.0394-15.7217 14.6522-16.3183 14.265-16.9149 13.6652-17.2133 12.8528-17.2133ZM13.2908-19.1936C14.8648-19.1936 16.185-18.9048 17.2513-18.3272 18.3177-17.7496 19.1079-16.9467 19.622-15.9185 20.1361-14.8902 20.3931-13.697 20.3931-12.3387 20.3931-10.6631 20.1139-8.98111 19.5553-7.29279 18.9968-5.60447 18.2256-4.18907 17.2418-3.0466 16.258-1.90412 15.0933-1.05996 13.7478-0.514113 12.4022 0.0317355 10.8789 0.30466 9.17787 0.30466 7.78151 0.30466 6.55335 0.05395 5.49339-0.447469 4.43343-0.948887 3.60196-1.71054 2.99899-2.73241 2.39602-3.75429 2.09453-5.00149 2.09453-6.47401 2.09453-7.97192 2.32938-9.54282 2.79906-11.1867 3.26874-12.8306 3.99866-14.2777 4.9888-15.5281 5.97894-16.7785 7.17537-17.702 8.57807-18.2986 9.98077-18.8952 11.5517-19.1936 13.2908-19.1936Z" fill-rule="evenodd" transform="matrix(1.00009 0 0 1 1799.63 307.805)"/><text fill="#000000" fill-opacity="0" font-family="Arial,Arial_MSFontService,sans-serif" font-size="19.4982" x="2.09453" y="-2.13262"></text><path d="M344 309.972 344 679.422" stroke="#000000" stroke-width="6" stroke-miterlimit="8" fill="none" fill-rule="evenodd"/><text font-family="Times New Roman,Times New Roman_MSFontService,sans-serif" font-weight="400" font-size="37" transform="matrix(1 0 0 0.999908 638.463 921)">(a) Edge<tspan font-size="37" x="127.5" y="0">-</tspan>aware Kolmogorov<tspan font-size="37" x="429.167" y="0">-</tspan>Arnold Network<tspan font-size="37" x="-35.1907" y="834.077">(b) </tspan>KANLayer</text></g></svg>